<svg xmlns="http://www.w3.org/2000/svg" style="display: none;">
    <symbol id="icon-beer" viewBox="0 0 50 50">
      <path d="M36.093 21.136c.005 5.605.07 11.21 0 16.816-.016.38-.086.752-.226 1.106-.337.855-1.04 1.54-1.902 1.857-.333.12-.68.182-1.032.196-3.972.05-7.945.002-11.917.002-.378-.005-.75-.067-1.107-.197-.915-.335-1.646-1.084-1.958-2.006-.113-.335-.167-.682-.17-1.033v-.9h-2.258c-.352-.004-.7-.057-1.033-.17-.92-.312-1.67-1.043-2.005-1.957-.13-.356-.192-.73-.197-1.107v-10.18h5.493v-2.028l-.05-.022c-.112-.054-.21-.135-.31-.21-.19-.144-.375-.3-.548-.466-.367-.353-.686-.758-.924-1.21-.347-.656-.51-1.404-.44-2.146.027-.3.092-.6.192-.887.307-.886.94-1.64 1.74-2.123.432-.26.91-.44 1.405-.532.232-.043.467-.067.702-.072.064-.47.18-.93.36-1.37.137-.335.31-.656.518-.955.14-.2.293-.39.46-.57 1.012-1.09 2.444-1.694 3.888-1.95.214-.038.43-.068.646-.092.325-.035.652-.055.98-.06.432-.007.867.012 1.298.056.527.054 1.05.144 1.563.275.298.075.592.164.88.27.233.083.462.177.686.28.173.083.344.17.51.267.815.466 1.567 1.134 1.91 2.028.057.147.102.297.134.45.04.202.06.408.057.613v.045c.99.094 1.943.504 2.698 1.153.74.635 1.282 1.497 1.486 2.454.052.238.082.48.09.723.01.36-.025.723-.106 1.076-.14.618-.42 1.2-.784 1.718-.215.307-.46.593-.727.858zm-15.06 17.476c3.958 0 7.924.248 11.875-.003.037-.004.074-.01.11-.017.242-.06.444-.234.53-.47.028-.075.04-.154.044-.234v-14.95h-13.31c0 4.996-.315 10 0 14.987.005.038.01.074.018.11.055.224.208.414.42.51.06.027.124.045.19.056.04.006.08.008.122.01zm8.436-3.69c-.092-.003-.18-.017-.267-.05-.2-.075-.36-.236-.435-.435-.027-.07-.04-.145-.047-.22-.07-2.347 0-4.697 0-7.045.003-.122.028-.24.085-.348.042-.08.1-.153.167-.213.255-.225.643-.248.923-.055.063.043.118.095.165.155.095.12.144.264.158.417.07 2.347 0 4.696 0 7.044 0 .078-.01.15-.033.224-.063.204-.214.374-.408.46-.07.033-.142.05-.217.062-.046.004-.045.004-.09.005zm-5.066 0c-.09-.003-.18-.017-.266-.05-.2-.075-.36-.236-.435-.435-.027-.07-.04-.145-.047-.22-.07-2.347-.002-4.697-.002-7.045.004-.122.03-.24.086-.348.042-.08.1-.153.167-.213.255-.225.643-.248.923-.055.063.043.118.095.165.155.095.12.144.264.158.417.07 2.347 0 4.696 0 7.044 0 .078-.01.15-.033.224-.063.204-.214.374-.408.46-.07.033-.142.05-.217.062-.046.004-.045.004-.09.005zm-6.623-8.86H14.79c0 2.578-.16 5.16.003 7.73.026.282.205.53.47.635.08.03.165.047.252.05H17.78v-8.414zm.91-5.622h15.993c.02-.032.042-.062.066-.09.07-.084.157-.154.236-.23.08-.077.078-.077.156-.157.16-.173.314-.353.45-.548.295-.418.514-.895.59-1.403.034-.225.04-.453.014-.68-.02-.174-.056-.346-.11-.514-.37-1.168-1.494-2.012-2.694-2.16-.485-.06-.98-.007-1.44.156-.123.043-.244.095-.362.153-.065.032-.128.068-.193.1-.042.018-.042.018-.085.033-.147.043-.298.05-.446.005-.072-.022-.14-.055-.204-.097-.23-.155-.356-.43-.325-.705.008-.075.028-.15.058-.218.037-.083.088-.16.152-.224.106-.107.245-.172.38-.24.304-.15.624-.267.953-.35l.043-.01c.01-.08.017-.16.014-.24-.02-.564-.41-1.026-.832-1.36-.08-.06-.16-.12-.243-.174-.12-.08-.242-.153-.367-.222-.17-.092-.345-.175-.523-.25-.19-.08-.385-.153-.58-.217-.25-.08-.505-.15-.76-.206-.45-.1-.906-.165-1.365-.198-.375-.027-.75-.033-1.126-.016-.278.013-.557.04-.834.078-.225.032-.45.074-.672.125-1.036.24-2.067.714-2.765 1.54-.1.118-.192.24-.276.37-.14.217-.255.45-.345.69-.108.29-.177.59-.218.896.16.05.317.106.472.168.04.017.04.017.078.036.125.072.23.17.3.297.04.075.07.158.084.242.05.3-.096.61-.36.766-.085.05-.182.084-.28.097-.116.016-.228.002-.34-.032-.09-.033-.183-.07-.276-.103-.192-.063-.387-.114-.588-.145-.435-.068-.883-.044-1.305.085-.81.247-1.492.883-1.734 1.702-.04.14-.07.283-.082.43-.017.185-.01.372.02.557.1.614.45 1.154.892 1.58.13.124.268.24.412.35.065.048.132.094.197.143.034.028.034.028.065.057.04.042.074.086.104.133z"/>
    </symbol>
    <symbol id="icon-coffee" viewBox="0 0 50 50">
      <path d="M31.64 41.644v.017c-.008.114-.03.227-.07.334-.047.134-.118.26-.208.37-.108.133-.243.242-.394.32-.127.067-.264.11-.405.13-.075.01-.095.01-.17.01H15.19c-.076 0-.095 0-.17-.01-.14-.02-.28-.063-.405-.13-.152-.078-.287-.187-.395-.32-.167-.206-.262-.46-.277-.72h-2.49c-.095-.004-.12-.002-.212-.018-.243-.04-.473-.157-.652-.33-.102-.097-.188-.212-.252-.34-.063-.125-.105-.262-.123-.403-.014-.105-.014-.212 0-.317.05-.39.287-.74.63-.933.124-.07.26-.117.398-.14.094-.017.118-.015.213-.02h7.413c-.155-.046-.31-.096-.463-.15-1.575-.555-3.014-1.476-4.18-2.67-1.105-1.133-1.96-2.503-2.486-3.995-.27-.768-.453-1.566-.546-2.374-.046-.414-.067-.83-.07-1.247v-6.942h23.342c0 .888.002 1.776.004 2.664h5.32c0 2.068.026 4.136 0 6.205l-.01.165c-.028.323-.096.64-.215.94-.336.856-1.038 1.542-1.902 1.858-.332.12-.678.183-1.032.196-1.14.014-2.283.008-3.425.004-.468.884-1.058 1.705-1.75 2.43-1.15 1.208-2.577 2.146-4.144 2.72-.195.07-.39.136-.59.196h7.414c.094.004.118.002.21.018.14.024.276.072.4.14.123.07.235.16.328.267.07.078.13.167.178.262.177.35.177.774 0 1.125-.064.127-.15.242-.25.34-.18.172-.41.288-.655.33-.092.015-.116.013-.21.017h-2.49zm-9.61-4.534c.546 0 1.09.002 1.635 0l.325-.01c.284-.017.566-.044.848-.087.615-.094 1.22-.257 1.8-.486 1.196-.47 2.276-1.22 3.14-2.172.753-.827 1.338-1.803 1.71-2.858.22-.624.364-1.274.43-1.933.03-.288.043-.576.044-.865v-4.435H13.62c0 1.515-.01 3.03 0 4.547.007.322.027.644.068.963.08.62.227 1.232.442 1.82.396 1.08 1.017 2.075 1.81 2.908.842.88 1.872 1.577 3.005 2.024.58.23 1.184.392 1.8.486.28.043.564.07.848.086.146.005.292.01.438.01zm12.114-5.782c.82.014 1.64.016 2.458-.035.28-.025.53-.205.633-.47.032-.08.048-.165.05-.252l.002-.026V26.93h-2.82c0 .637 0 1.276-.005 1.914-.008.37-.03.74-.07 1.11-.053.462-.136.922-.248 1.373zm-14.07-10.674c-.195-.01-.382-.055-.556-.15-.107-.056-.205-.13-.29-.215-.086-.087-.16-.185-.217-.292-.185-.344-.198-.766-.033-1.12.062-.133.146-.254.25-.357.05-.05.107-.095.166-.14.118-.077.24-.15.36-.227.3-.202.596-.417.863-.664.165-.153.32-.317.453-.498.094-.13.178-.27.235-.423.037-.097.063-.197.073-.3.037-.374-.132-.74-.327-1.048-.054-.087-.113-.172-.176-.254-.016-.022-.036-.04-.053-.06l-.096-.115c-.063-.077-.123-.155-.18-.235-.226-.316-.414-.653-.55-1.016-.274-.72-.338-1.508-.2-2.264.08-.43.222-.85.415-1.243.314-.643.76-1.216 1.284-1.703.334-.31.7-.587 1.085-.83.124-.078.25-.162.387-.222.09-.04.183-.067.278-.085.167-.03.34-.027.505.01.43.1.786.43.916.853.035.116.054.237.055.358.002.145-.023.29-.072.428-.065.183-.173.35-.313.484-.053.05-.11.094-.17.136-.085.053-.172.103-.257.156-.17.11-.338.225-.495.354-.098.08-.192.163-.282.25-.083.083-.164.17-.24.26-.437.51-.763 1.19-.642 1.873.02.112.052.222.094.327.066.167.16.324.27.466.058.076.123.147.187.22.06.077.06.077.117.155.302.42.564.865.737 1.353.15.42.232.864.23 1.31-.004.478-.105.952-.29 1.392-.15.353-.35.684-.582.987-.575.748-1.335 1.327-2.127 1.828l-.117.073c-.085.05-.17.092-.263.123-.093.032-.188.048-.284.06-.072.004-.072.004-.145.004zm5.536-.81c-.133-.007-.26-.04-.373-.11-.24-.144-.382-.42-.36-.7.005-.07.02-.143.048-.21.047-.123.127-.232.23-.315.063-.053.137-.093.204-.14.04-.03.078-.063.116-.095.124-.11.234-.235.327-.374.35-.524.46-1.235.218-1.826-.033-.083-.074-.162-.12-.238-.02-.03-.04-.06-.062-.088-.04-.047-.082-.093-.12-.14-.048-.06-.048-.06-.093-.12-.143-.2-.265-.412-.343-.646-.055-.162-.088-.33-.096-.5-.006-.12 0-.243.02-.363.014-.096.037-.19.066-.28.178-.547.593-.977 1.046-1.312.145-.108.295-.207.45-.3.07-.042.138-.086.213-.12.094-.04.196-.06.298-.06.102 0 .203.02.297.06.067.028.13.067.185.113.24.2.33.538.225.832-.05.14-.14.254-.256.345-.06.043-.124.078-.187.115-.068.04-.134.084-.2.128-.11.075-.218.154-.318.242-.066.06-.13.12-.186.19-.045.05-.085.107-.115.168-.02.04-.034.08-.04.123-.008.077.02.154.052.222.066.132.164.24.26.35l.07.09c.17.245.307.505.404.785.38 1.098.14 2.368-.574 3.278-.187.238-.405.45-.65.63-.104.078-.216.16-.338.21-.055.022-.11.036-.168.046-.044.006-.086.01-.13.01z"/>
    </symbol>
    <symbol id="icon-flag-en" viewBox="0 0 26.98 17.985">
      <path fill="#01247D" d="M0 0h26.98v17.986H0z"/><path fill="#fff" d="M26.98 0h-3.096l-7.696 5.13V0h-5.396v5.13L3.096 0H0v2.083l6.32 4.213H0v5.396h6.343L0 15.922v2.063h3.12l7.672-5.113v5.113h5.396v-5.113l7.672 5.113h3.12V15.92l-6.342-4.228h6.34V6.296h-6.32l6.32-4.213z"/><path fill="#CF142B" d="M26.98 7.42H15.062V0h-3.147v7.42H0v3.145h11.916v7.42h3.147v-7.42H26.98zM26.98 17.935v-1.422l-7.252-4.82h-2.135zM26.98 0h-2.133l-8.66 5.757v.54h1.33L26.98 0zM9.39 11.692L0 17.935v.05h2.06l8.732-5.806v-.488zM0 .01v1.42l7.312 4.866h2.136z"/>
    </symbol>
    <symbol id="icon-flag-fr" viewBox="0 0 26.98 17.985">
      <path fill="#002F66" d="M0 0h8.993v17.985H0z"/><path fill="#fff" d="M8.993 0h8.993v17.985H8.993z"/><path fill="#EF4135" d="M17.986 0h8.994v17.985h-8.994z"/>
    </symbol>
    <symbol id="icon-laundry" viewBox="0 0 50 50">
      <path d="M36.226 30.684c1.65-.04 3.297-.1 4.945-.188.047-.003.093-.01.14-.02.12-.026.234-.074.336-.144.337-.23.49-.664.374-1.056-.032-.105-.082-.205-.147-.293-.08-.107-.18-.194-.293-.26-4.946-2.75-9.89-5.512-14.926-8.09-.225-.11-.457-.2-.7-.266-.585-.157-1.208-.167-1.8-.028-.28.065-.55.165-.808.293-5.05 2.584-10.124 5.148-14.962 8.11-.11.072-.206.162-.28.27-.062.092-.107.194-.135.3-.023.088-.033.18-.03.27.013.326.196.63.48.79.107.062.226.1.35.118.042.006.084.008.127.008 1.492 0 2.984.01 4.477.03v-.56c.005-.133.02-.26.06-.387.113-.344.376-.63.712-.767.09-.038.185-.065.282-.08.087-.014.11-.012.196-.016h20.352c.133.006.26.02.386.062.345.11.63.374.77.71.036.09.063.185.08.282.012.086.01.108.014.195v.717zm0 2.35V44.6c-.005.133-.02.26-.06.387-.113.345-.376.63-.712.768-.09.038-.185.065-.282.08-.087.014-.11.012-.196.015H14.624c-.087-.003-.11 0-.196-.015-.097-.015-.192-.042-.282-.08-.336-.14-.6-.423-.71-.768-.042-.127-.057-.254-.062-.387V33.004c-1.497-.003-2.994-.006-4.49-.006-.48-.005-.952-.1-1.39-.295-.386-.17-.74-.412-1.038-.71-.268-.266-.49-.577-.66-.916-.14-.283-.24-.585-.297-.896-.185-.98.076-2.016.702-2.795.272-.338.605-.616.98-.834 4.956-2.755 9.95-5.444 14.955-8.107.46-.236.943-.42 1.446-.538.054-.013.11-.024.163-.036-.022-.963.004-1.926.004-2.888.004-.132.02-.26.06-.385.114-.35.383-.638.724-.775.123-.05.25-.074.38-.087.12-.005.24-.005.36-.013.61-.05 1.198-.252 1.705-.594.423-.287.784-.665 1.05-1.102.148-.245.267-.508.352-.782.273-.877.19-1.847-.228-2.665-.168-.33-.39-.632-.65-.894-.282-.282-.61-.516-.97-.69-.38-.182-.794-.296-1.215-.333-.448-.04-.902.004-1.332.132-.434.13-.84.343-1.195.625-.287.23-.54.503-.742.81-.093.14-.174.285-.248.435l-.037.07c-.04.067-.084.132-.136.192-.12.14-.27.25-.438.326-.12.054-.247.09-.377.103-.45.048-.9-.157-1.16-.527-.074-.108-.132-.227-.17-.352-.046-.15-.063-.31-.05-.466.008-.104.03-.208.064-.307.026-.08.063-.154.1-.23.048-.093.098-.186.15-.277.276-.483.62-.928 1.016-1.318.6-.588 1.32-1.05 2.105-1.345 1.204-.453 2.546-.508 3.783-.157.566.16 1.11.405 1.604.723.61.393 1.15.894 1.583 1.475.322.43.585.9.782 1.4.54 1.366.557 2.914.052 4.293-.184.504-.437.983-.748 1.42-.392.552-.877 1.037-1.428 1.43-.478.338-1.005.608-1.56.796-.226.077-.456.137-.688.188v1.767c.15.03.298.066.445.108.404.115.793.273 1.167.465 5.007 2.663 10 5.352 14.956 8.108.374.22.708.497.98.835.594.74.862 1.713.727 2.652-.05.338-.147.667-.29.976-.162.342-.38.658-.642.93-.293.303-.64.552-1.022.73-.435.205-.906.31-1.387.325-1.652.017-3.305.03-4.957.037z"/>
    </symbol>
    <symbol id="icon-massage" viewBox="0 0 50 50">
      <path d="M10.78 38.432c-.12-.006-.23-.026-.336-.08-.082-.04-.157-.096-.22-.165-.206-.226-.253-.565-.117-.84.03-.06.07-.12.117-.17.11-.12.257-.203.417-.232.06-.012.077-.01.14-.013H26.95c.117.005.228.026.334.08.274.135.44.434.413.74-.008.068-.024.136-.05.2-.032.087-.082.167-.144.235-.11.12-.257.202-.416.232-.06.01-.077.01-.138.012H10.78zm28.105-.237c-2.33.068-4.662.002-6.992 0h-.158c-.094-.003-.186-.01-.278-.032-.004 0-.008-.002-.01-.003-.088-.02-.173-.05-.253-.09h-.003v-.002l-.062-.03c-1.307-.682-2.584-1.418-3.867-2.143-.102.012-.205.017-.308.02H12.358c-.12-.004-.238-.01-.356-.026-.314-.046-.62-.152-.894-.31-.206-.12-.395-.268-.56-.44-.496-.52-.747-1.247-.68-1.963.024-.237.08-.47.17-.692.117-.295.29-.566.51-.796.22-.23.482-.418.77-.55.218-.1.448-.166.684-.2.118-.017.236-.023.356-.026h14.594c.12.003.237.01.356.026.235.034.466.1.682.2.068.03.133.065.198.1.087.042.17.092.244.15.03.024.058.05.085.075.087.07.168.144.244.224.108.11.204.232.288.362l3.248 3.642h6.597l.074.003h.003l.034.003c.062.006.122.015.183.03l.03.008.032.008.018.006.014.005c.018.006.036.012.055.02l.02.007.032.013.03.014.03.016.024.012.028.015.03.016.026.016.027.018.014.01.012.008.013.01.013.01.013.01.03.022.01.006.074.068.02.02.025.026.024.028.018.02.022.027.014.018.014.018.02.028.013.02c.07.107.125.225.16.348.04.136.053.275.045.413-.008.136-.037.27-.09.4-.045.114-.11.22-.186.317l-.003.003-.002.004-.003.003-.002.002-.005.005v.002l-.002.002-.004.004-.003.003-.003.004-.002.002-.002.003-.003.002-.002.002-.002.002-.003.003-.003.003-.002.002-.002.002-.003.003-.003.003v.002l-.003.002-.004.004-.002.004-.003.003-.003.004-.003.004-.002.003-.005.005-.002.002-.002.004-.005.004-.002.002-.003.004-.004.004-.002.002-.003.004-.004.004h-.002v.002l-.004.004-.004.004-.002.002-.005.004-.004.003v.002l-.007.007h-.002c-.05.046-.104.086-.16.122l-.008.004-.005.003-.006.004-.005.003h-.002l-.005.004c-.005.004-.01.008-.017.01v.002l-.005.002h-.002c-.006.005-.012.008-.02.012-.16.086-.332.13-.513.146h-.002l-.083.003zm-4.63-11.422c1.947 0 3.527 1.58 3.527 3.53 0 1.948-1.58 3.527-3.528 3.527-1.95 0-3.53-1.58-3.53-3.528 0-1.95 1.58-3.53 3.53-3.53zm-14.722 2.89h-6.36c.01-.023.024-.047.036-.072 1.3-2.61 2.688-5.177 4.032-7.765v-.002c.05-.096.107-.19.168-.277v-.002l.003-.003.006-.006.004-.007v-.002h.002l.006-.01.006-.008.014-.02.003-.003.01-.013v-.002h.002l.002-.003.008-.01.002-.005.002-.002.007-.01.006-.008.008-.01.008-.01.003-.004.007-.01.006-.006.002-.002.004-.005.006-.006.004-.005.004-.005.005-.007.004-.004.003-.003.007-.008.006-.008.002-.002.017-.02.004-.003.012-.014.003-.004h.003l.003-.005.01-.01.005-.007.003-.002h.002l.006-.008.013-.013v-.002c.098-.102.205-.195.318-.28.03-.022.06-.043.092-.064l.004-.002.003-.003.01-.008.01-.007.003-.002.005-.003c.03-.02.063-.04.095-.058.104-.06.212-.115.324-.16h.002l.003-.003.012-.006.008-.003h.004l.005-.003.01-.003.006-.003h.007l.006-.004.006-.002.007-.002.01-.004.006-.002h.002l.005-.003.014-.005.007-.002h.002c.058-.02.118-.04.178-.056h.002l.012-.003.013-.003h.003l.01-.004.012-.003h.006l.01-.003.008-.003H18.903l.007-.002.01-.002.006-.002h.007l.005-.002h.005l.01-.003.01-.003h.002l.003-.002.01-.002.012-.002h.002l.014-.002c.138-.025.278-.04.418-.04h.026l.002-.002h.055l.036.002h.03l.02.002c.024 0 .046.003.068.005l.037.003.025.002.042.005.034.004.033.004.023.003.015.003c.104.017.208.04.31.07l.035.013.02.006.022.006.018.006.045.016.028.01.032.013.04.017.02.01.02.007.03.013.027.013.06.028.032.017.03.016.028.016.028.016.028.016.018.01.027.016.026.017.013.008c.234.15.443.34.616.556 1.15 1.12 2.222 2.323 3.408 3.405.088.075.185.134.293.18 1.313.492 2.667.87 4 1.306.184.065.35.16.49.3.092.09.17.194.23.308.2.385.186.86-.04 1.23-.068.11-.152.21-.25.294-.13.113-.282.198-.446.25-.06.02-.124.03-.188.043-.064.008-.127.013-.192.014-.11-.003-.212-.017-.318-.043-1.35-.4-2.677-.87-4.015-1.308-.287-.1-.56-.226-.816-.393-.17-.113-.33-.24-.48-.38-.492-.475-.98-.957-1.463-1.44-.097.57-.197 1.14-.293 1.71-.032.17-.074.334-.136.495-.083.214-.197.41-.332.596-.44.563-.886 1.12-1.335 1.674zm.002-15.684c.623-.553 1.442-.888 2.34-.888 1.948 0 3.527 1.58 3.527 3.528 0 1.95-1.58 3.528-3.528 3.528-1.95 0-3.528-1.58-3.528-3.528 0-.578.14-1.124.386-1.606l.004-.01.002-.002.003-.006h.002v-.004l.003-.005v-.002l.003-.003.002-.003v-.003l.003-.005.002-.002v-.004l.004-.004v-.005l.004-.004c.182-.34.417-.643.694-.904v-.002l.005-.004.002-.002.006-.005h.002v-.002l.002-.002.004-.003.002-.002.003-.002.003-.003.005-.005.004-.003.008-.007.008-.007h.002v-.002h.002l.003-.004.006-.005v-.002l.012-.01zm-1.652 1.097c-.704-.246-1.21-.916-1.21-1.704 0-.997.81-1.805 1.806-1.805.758 0 1.408.47 1.675 1.133-.014.008-.028.014-.042.02-.47.212-.9.51-1.264.875-.366.364-.664.794-.876 1.264-.032.07-.063.143-.09.217z"/>
    </symbol>
    <symbol id="icon-menu" viewBox="0 0 40 40">
      <path d="M7.716 31.648c-.137-.004-.17-.002-.307-.02-.256-.03-.506-.1-.74-.21-.28-.127-.534-.308-.75-.53-.177-.184-.327-.396-.442-.626-.114-.23-.193-.477-.232-.73-.103-.664.07-1.355.475-1.89.156-.205.342-.386.552-.534.293-.208.63-.35.985-.417.153-.028.304-.037.46-.042h24.566c.137.004.172.002.308.02.255.03.505.102.738.21.28.128.536.31.75.53.18.184.33.396.443.626.116.23.194.477.234.73.04.254.04.514 0 .768-.103.663-.478 1.27-1.026 1.657-.294.206-.632.35-.985.416-.153.028-.305.037-.46.042H7.716zm0-9.148c-.155-.005-.306-.014-.46-.043-.353-.066-.69-.21-.984-.416-.21-.148-.396-.328-.55-.533-.156-.205-.28-.434-.364-.676-.223-.632-.18-1.343.12-1.944.115-.23.265-.442.443-.626.216-.222.47-.402.75-.53.234-.108.484-.18.74-.21.135-.018.17-.016.306-.02h24.567c.155.005.307.014.46.043.353.066.69.21.985.416.21.148.396.328.55.533.155.205.278.434.363.676.087.24.134.496.142.753.02.67-.236 1.335-.704 1.817-.214.222-.47.402-.75.53-.233.108-.483.18-.737.21-.135.018-.17.016-.307.02H7.716zm0-9.148c-.137-.004-.17-.002-.307-.02-.256-.03-.506-.102-.74-.21-.28-.128-.534-.31-.75-.53-.177-.184-.327-.396-.442-.626-.3-.6-.343-1.312-.12-1.945.086-.24.208-.47.363-.675.156-.205.342-.385.552-.534.293-.206.63-.35.985-.416.153-.028.304-.037.46-.042h24.566c.137.004.172.002.308.02.255.03.505.1.738.21.28.127.536.308.75.53.18.184.33.396.443.625.3.602.344 1.312.12 1.946-.084.242-.207.47-.36.675-.156.205-.343.386-.552.534-.294.208-.632.35-.985.417-.153.028-.305.037-.46.042H7.716z"/>
    </symbol>
    <symbol id="icon-motorcycle" viewBox="0 0 50 50">
      <path d="M24.962 40.968c-.28-.01-.556-.056-.82-.152-.674-.247-1.22-.784-1.476-1.453-.1-.264-.152-.538-.165-.82-.03-1.996-.03-3.993 0-5.99.02-.383.11-.756.292-1.096.12-.224.273-.43.454-.61.163-.16.348-.297.548-.408.63-.347 1.392-.405 2.065-.158.286.104.552.262.782.462.25.218.455.484.6.78.16.323.24.67.257 1.03.03 1.996.03 3.993 0 5.99-.014.28-.065.556-.166.82-.247.644-.762 1.167-1.404 1.424-.237.096-.485.15-.74.173-.076.005-.152.008-.228.008zm1.683-22.893c1.783.33 3.44 1.193 4.74 2.494 1.693 1.692 2.644 3.988 2.644 6.382v7.225c0 1.362-1.105 2.467-2.467 2.467h-1.55c.005-1.374 0-2.748-.014-4.122-.008-.216-.024-.43-.056-.643-.076-.497-.226-.982-.446-1.434-.282-.58-.677-1.106-1.158-1.537-.453-.41-.982-.732-1.55-.95-.537-.205-1.108-.317-1.682-.33-.754-.016-1.51.14-2.194.455-.685.315-1.296.785-1.775 1.367-.297.36-.543.762-.728 1.19-.185.428-.31.88-.37 1.344-.023.178-.035.356-.04.536-.015 1.374-.02 2.748-.015 4.122h-1.55c-1.362 0-2.466-1.105-2.466-2.467v-7.225c0-2.394.952-4.69 2.645-6.384 1.3-1.3 2.957-2.163 4.74-2.493-.13-.048-.256-.103-.38-.163-.88-.423-1.615-1.124-2.08-1.982-.12-.217-.22-.444-.302-.678h-6.136c-.09-.003-.113 0-.2-.016-.134-.02-.262-.064-.38-.127-.33-.174-.57-.493-.645-.857-.027-.132-.033-.268-.016-.4.016-.134.054-.265.11-.386.06-.122.136-.234.23-.33.162-.17.373-.292.6-.348.1-.026.2-.033.3-.037h5.97c.07-.335.176-.66.317-.973.23-.512.557-.982.955-1.38.397-.397.867-.723 1.38-.954.565-.256 1.18-.396 1.802-.412.625-.016 1.25.093 1.833.323.525.207 1.01.51 1.428.89.416.377.763.83 1.02 1.33.19.37.33.767.414 1.175h5.97c.102.005.2.012.3.037.227.055.438.177.6.347.094.096.17.208.23.33.057.12.094.252.11.385.046.37-.08.748-.34 1.016-.092.097-.2.18-.32.24-.118.064-.247.107-.38.128-.088.015-.11.013-.2.016h-6.137c-.044.127-.094.252-.15.374-.417.924-1.14 1.7-2.03 2.183-.187.1-.382.19-.582.265zM25 15.873c.326-.004.646-.07.94-.213.236-.114.45-.27.63-.46.182-.19.328-.41.43-.652.084-.198.138-.408.16-.622.025-.256.006-.517-.058-.766-.158-.614-.59-1.14-1.162-1.414-.258-.125-.54-.196-.827-.21-.29-.015-.585.028-.86.128-.245.09-.475.226-.673.398-.198.17-.364.378-.49.607-.1.185-.174.387-.216.594-.045.218-.055.442-.033.663.07.67.46 1.283 1.036 1.633.275.167.58.266.9.302.075.007.15.01.224.01z"/>
    </symbol>
    <symbol id="icon-top" viewBox="0 0 40 40">
      <path d="M22.764 14.567V30.87c-.003.123 0 .154-.015.275-.02.183-.06.363-.12.537-.242.7-.795 1.27-1.49 1.53-.17.064-.35.11-.532.135-.122.017-.152.016-.275.022h-.137c-.123-.007-.154-.006-.275-.023-.18-.026-.36-.07-.532-.135-.694-.26-1.248-.83-1.488-1.53-.06-.174-.1-.354-.12-.537-.014-.12-.012-.152-.016-.275V14.14l-5.006 4.033-.104.08c-.145.098-.292.188-.453.26-.16.07-.326.124-.497.16-.114.024-.143.025-.258.04-.13.01-.13.01-.262.013-.13-.004-.26-.01-.39-.032-.26-.04-.51-.124-.744-.243-.234-.12-.448-.275-.633-.46-.153-.155-.287-.33-.395-.52-.373-.648-.434-1.448-.164-2.146.11-.285.273-.55.478-.776.09-.097.185-.184.285-.27l8.81-7.096c.093-.07.115-.09.212-.152.146-.095.302-.174.464-.236.613-.234 1.307-.216 1.906.05.2.09.38.206.555.338l8.81 7.097c.1.084.197.17.285.268.176.195.32.416.428.655.125.28.198.58.215.886.016.304-.023.612-.117.902-.08.25-.2.486-.353.698-.412.57-1.06.946-1.76 1.022-.216.023-.436.018-.65-.016-.303-.047-.596-.15-.86-.302-.115-.066-.22-.14-.325-.22l-4.476-3.607z"/>
    </symbol>
    <symbol id="icon-wifi" viewBox="0 0 50 50">
      <path d="M25 30.43c1.948 0 3.528 1.58 3.528 3.528 0 1.95-1.58 3.528-3.528 3.528-1.95 0-3.53-1.58-3.53-3.528 0-1.95 1.58-3.528 3.53-3.528zm-7.673-.742c-.124 0-.245-.006-.367-.022-.284-.038-.56-.125-.816-.257-.218-.114-.42-.26-.595-.43-.177-.17-.327-.368-.446-.583-.318-.577-.396-1.27-.214-1.902.08-.275.207-.536.374-.768.11-.154.24-.293.368-.432.227-.25.465-.488.71-.718 1.23-1.15 2.684-2.055 4.263-2.638 1.793-.664 3.732-.906 5.633-.723 1.258.12 2.497.43 3.664.918 1.292.54 2.492 1.298 3.536 2.232.29.26.57.535.835.82.165.18.334.36.474.557.213.3.358.648.422 1.01.056.324.048.657-.023.976-.053.24-.142.472-.262.686-.283.5-.737.895-1.273 1.103-.23.088-.47.142-.716.16-.286.023-.575-.005-.85-.08-.317-.088-.614-.237-.873-.438-.098-.075-.186-.16-.273-.246-.1-.11-.195-.22-.295-.33-.184-.196-.376-.384-.578-.56-.483-.42-1.018-.78-1.59-1.066-.583-.29-1.204-.506-1.842-.64-1.578-.328-3.254-.16-4.726.5-.714.32-1.376.752-1.96 1.27-.264.234-.51.487-.742.752l-.084.09c-.088.086-.177.17-.275.244-.23.173-.486.307-.76.394-.156.05-.315.08-.478.102-.123.01-.122.01-.245.016zm-6.596-5.72c-.147-.008-.185-.006-.332-.03-.275-.042-.543-.13-.79-.26-.196-.106-.378-.236-.54-.39-.163-.152-.305-.326-.42-.517-.35-.573-.456-1.278-.287-1.93.07-.27.186-.527.34-.758.083-.124.11-.15.204-.265.12-.138.244-.275.368-.41.538-.58 1.104-1.134 1.7-1.654 1.305-1.134 2.745-2.11 4.283-2.897 1.692-.867 3.5-1.505 5.36-1.893 2.835-.59 5.79-.6 8.627-.03 1.957.395 3.857 1.065 5.627 1.988 1.573.82 3.042 1.836 4.366 3.018.625.56 1.214 1.154 1.772 1.78l.087.1c.094.113.12.14.203.264.155.23.27.49.34.76.084.322.102.662.053.993-.032.22-.094.436-.184.64-.248.564-.704 1.024-1.266 1.275-.204.09-.42.155-.64.19-.275.04-.557.038-.83-.012-.33-.06-.646-.187-.925-.37-.142-.094-.265-.202-.39-.316-.186-.2-.365-.405-.552-.604-.443-.466-.91-.908-1.403-1.32-1.07-.896-2.257-1.655-3.52-2.25-1.186-.56-2.44-.974-3.724-1.232-2.178-.438-4.447-.43-6.622.022-1.528.32-3.01.858-4.385 1.598-1.198.643-2.313 1.437-3.315 2.355-.45.414-.874.852-1.277 1.31l-.115.122c-.11.1-.134.13-.252.22-.266.2-.572.348-.897.43-.164.042-.327.06-.495.074-.055 0-.11 0-.167.002z"/>
    </symbol></svg>