<?xml version="1.0" standalone="no"?>
<!DOCTYPE svg PUBLIC "-//W3C//DTD SVG 1.1//EN" "http://www.w3.org/Graphics/SVG/1.1/DTD/svg11.dtd">
<svg width="100%" height="100%" viewBox="0 0 50 50" version="1.1" xmlns="http://www.w3.org/2000/svg" xmlns:xlink="http://www.w3.org/1999/xlink" xml:space="preserve" style="fill-rule:evenodd;clip-rule:evenodd;stroke-linejoin:round;stroke-miterlimit:1.41421;">
    <g id="Layer1">
        <path d="M36.093,21.1361C36.0982,26.7413 36.1624,32.347 36.0917,37.9518C36.0772,38.3315 36.007,38.7038 35.8673,39.058C35.5302,39.913 34.8277,40.5987 33.9646,40.9147C33.6322,41.0364 33.2857,41.0974 32.9327,41.1108C28.9608,41.1612 24.9883,41.1118 21.0162,41.1118C20.6379,41.107 20.2649,41.045 19.909,40.9147C18.9947,40.58 18.2637,39.831 17.9516,38.9086C17.8387,38.5751 17.7855,38.2281 17.781,37.8766L17.781,36.9778L15.5235,36.9778C15.172,36.9733 14.825,36.92 14.4914,36.8072C13.5691,36.4951 12.8201,35.7641 12.4854,34.8498C12.3551,34.4939 12.2931,34.1209 12.2883,33.7426L12.2883,23.563L17.781,23.563L17.781,21.5346C17.7638,21.528 17.7467,21.5207 17.7298,21.5126C17.6181,21.4592 17.5192,21.378 17.4211,21.3041C17.229,21.1594 17.045,21.004 16.8717,20.8373C16.5048,20.4843 16.1861,20.0792 15.9482,19.6282C15.6013,18.9706 15.4385,18.2229 15.5069,17.481C15.5348,17.1786 15.6,16.8798 15.6995,16.5929C16.0069,15.707 16.6387,14.9523 17.4404,14.47C17.8719,14.2104 18.3499,14.0302 18.8449,13.938C19.0768,13.8948 19.3118,13.8711 19.5471,13.866C19.6114,13.3968 19.7259,12.9367 19.9065,12.497C20.0445,12.1608 20.2184,11.8396 20.4252,11.5407C20.5643,11.3397 20.7181,11.1489 20.8845,10.9698C21.8973,9.8799 23.3287,9.27605 24.7727,9.02045C24.9871,8.98249 25.2029,8.95194 25.4194,8.92831C25.7446,8.89281 26.0716,8.87302 26.3987,8.86788C26.8324,8.86107 27.2666,8.88002 27.6981,8.92396C28.2249,8.97761 28.7482,9.06839 29.2614,9.19925C29.5583,9.27499 29.852,9.36424 30.1402,9.46853C30.3727,9.55265 30.6017,9.64655 30.8255,9.75146C30.9994,9.83295 31.1702,9.92106 31.3369,10.0166C32.1505,10.483 32.9033,11.1514 33.2471,12.0454C33.3034,12.1917 33.3479,12.3424 33.3796,12.4959C33.4212,12.6971 33.4405,12.9027 33.4373,13.1081C33.4371,13.1232 33.4368,13.1383 33.4362,13.1534C34.4266,13.247 35.3797,13.6572 36.1351,14.3061C36.8741,14.941 37.4174,15.8031 37.6212,16.7596C37.6718,16.9976 37.7015,17.24 37.7095,17.4831C37.7213,17.8443 37.6851,18.2065 37.6044,18.5587C37.4626,19.1777 37.1846,19.7591 36.8204,20.2775C36.6045,20.5849 36.3589,20.8709 36.093,21.1361ZM21.032,38.6118C24.9907,38.6118 28.9573,38.8596 32.9081,38.6095C32.9454,38.6061 32.9819,38.6006 33.0185,38.5926C33.26,38.5338 33.4619,38.3586 33.5478,38.1241C33.5756,38.0482 33.5892,37.9691 33.5923,37.8885L33.5926,37.8608L33.5926,22.9401L20.281,22.9401C20.281,27.9358 19.9673,32.9415 20.2833,37.9272C20.2866,37.9645 20.2922,38.001 20.3001,38.0376C20.3547,38.2612 20.5083,38.4514 20.7189,38.5466C20.7797,38.5741 20.8436,38.5921 20.9094,38.603C20.9503,38.6088 20.9908,38.6112 21.032,38.6118ZM29.4694,34.9213C29.3778,34.9186 29.2895,34.9052 29.2034,34.8726C29.0042,34.7971 28.8436,34.6365 28.7681,34.4373C28.741,34.3657 28.7276,34.2925 28.7207,34.2166C28.6498,31.8696 28.7194,29.5205 28.7194,27.1724C28.7231,27.05 28.748,26.9329 28.8053,26.8239C28.8474,26.7436 28.9042,26.6711 28.972,26.611C29.2273,26.3849 29.6148,26.3615 29.8954,26.5552C29.9576,26.5981 30.0132,26.6504 30.0598,26.7099C30.155,26.8315 30.2041,26.9745 30.218,27.1271C30.2889,29.4741 30.2194,31.8233 30.2194,34.1713C30.2171,34.2475 30.2082,34.3214 30.1854,34.3945C30.122,34.5979 29.9714,34.7678 29.7772,34.8553C29.7074,34.8867 29.6351,34.9044 29.5598,34.9159C29.5143,34.92 29.5146,34.92 29.4694,34.9213ZM24.4043,34.9213C24.3127,34.9186 24.2243,34.9052 24.1383,34.8726C23.9391,34.7971 23.7785,34.6365 23.703,34.4373C23.6759,34.3657 23.6625,34.2925 23.6556,34.2166C23.5847,31.8696 23.6543,29.5205 23.6543,27.1724C23.658,27.05 23.6829,26.9329 23.7402,26.8239C23.7823,26.7436 23.839,26.6711 23.9069,26.611C24.1622,26.3849 24.5497,26.3615 24.8303,26.5552C24.8925,26.5981 24.9481,26.6504 24.9946,26.7099C25.0899,26.8315 25.139,26.9745 25.1529,27.1271C25.2238,29.4741 25.1543,31.8233 25.1543,34.1713C25.152,34.2475 25.1431,34.3214 25.1203,34.3945C25.0569,34.5979 24.9063,34.7678 24.7121,34.8553C24.6423,34.8867 24.57,34.9044 24.4947,34.9159C24.4495,34.92 24.4499,34.92 24.4043,34.9213ZM17.781,26.063L14.7883,26.063C14.7883,28.6398 14.6277,31.2216 14.7906,33.7932C14.8156,34.0739 14.9954,34.3226 15.2591,34.4266C15.34,34.4584 15.4249,34.4741 15.5116,34.4774L15.5393,34.4778L17.781,34.4778L17.781,26.063ZM18.689,20.4401L34.683,20.4401C34.7027,20.4083 34.7249,20.3779 34.7491,20.3494C34.82,20.2663 34.907,20.1965 34.9857,20.1212C35.0646,20.0429 35.0643,20.0432 35.1417,19.9632C35.3033,19.7896 35.4564,19.6096 35.5928,19.4154C35.8868,18.9969 36.1064,18.5205 36.1822,18.012C36.2157,17.7873 36.2207,17.5586 36.1959,17.3327C36.1768,17.1581 36.1399,16.9856 36.0866,16.8182C35.7152,15.6499 34.5918,14.8059 33.3915,14.6571C32.9075,14.5971 32.413,14.6511 31.9532,14.8136C31.8292,14.8574 31.7079,14.9088 31.59,14.9669C31.5249,14.999 31.4617,15.0347 31.3967,15.0671C31.3551,15.0849 31.3554,15.0847 31.3124,15.1001C31.1651,15.1427 31.0141,15.149 30.8662,15.1045C30.7938,15.0828 30.7248,15.0501 30.6623,15.0078C30.4335,14.8533 30.3062,14.5777 30.3367,14.3034C30.345,14.2283 30.3648,14.1545 30.3951,14.0854C30.4315,14.0023 30.483,13.9261 30.5465,13.8613C30.6528,13.7529 30.7922,13.6878 30.9266,13.6215C31.231,13.4714 31.551,13.353 31.8803,13.2708C31.8945,13.2672 31.9088,13.2637 31.9231,13.2603C31.9343,13.181 31.9395,13.1009 31.9368,13.0201C31.9179,12.4564 31.5284,11.9941 31.1045,11.6612C31.026,11.5995 30.9449,11.5412 30.8618,11.4856C30.7429,11.4061 30.6201,11.3326 30.4945,11.2641C30.3248,11.1717 30.1502,11.0885 29.9723,11.0132C29.7818,10.9326 29.5875,10.861 29.3908,10.7972C29.141,10.7162 28.8873,10.6479 28.631,10.5908C28.1821,10.4909 27.7256,10.4252 27.267,10.3919C26.8923,10.3647 26.516,10.3591 26.1408,10.3764C25.8617,10.3892 25.5831,10.4147 25.3064,10.4541C25.0806,10.4863 24.8559,10.5277 24.6337,10.5793C23.5978,10.8199 22.5672,11.294 21.8688,12.1201C21.7696,12.2375 21.6778,12.3613 21.5945,12.4905C21.4548,12.7072 21.3394,12.9392 21.2495,13.1809C21.1415,13.4708 21.0727,13.7711 21.0324,14.0762C21.1918,14.1251 21.3488,14.1817 21.5041,14.2438C21.5434,14.2608 21.5431,14.2607 21.5816,14.2801C21.707,14.3524 21.8114,14.4498 21.8819,14.5774C21.9234,14.6524 21.9518,14.7345 21.9657,14.8191C22.0151,15.1209 21.8703,15.4304 21.6069,15.5859C21.5207,15.6368 21.4245,15.6701 21.3254,15.6834C21.2102,15.6989 21.0978,15.6848 20.9872,15.6512C20.8946,15.6173 20.8035,15.5801 20.7104,15.5473C20.5179,15.4841 20.3227,15.4327 20.1223,15.4016C19.6873,15.3342 19.2386,15.358 18.8169,15.4869C18.0081,15.7343 17.3246,16.37 17.0832,17.1891C17.042,17.3292 17.0141,17.4733 17.0007,17.6188C16.9835,17.8047 16.9901,17.9925 17.0197,18.1767C17.1185,18.7909 17.4694,19.3307 17.9118,19.7563C18.0417,19.8813 18.1798,19.9975 18.3237,20.106C18.3889,20.1551 18.4564,20.201 18.5215,20.2501C18.5542,20.2778 18.554,20.2776 18.5852,20.3073C18.6242,20.3489 18.6592,20.3929 18.689,20.4401Z" style="fill:black;"/>
    </g>
</svg>
