<?xml version="1.0" standalone="no"?>
<!DOCTYPE svg PUBLIC "-//W3C//DTD SVG 1.1//EN" "http://www.w3.org/Graphics/SVG/1.1/DTD/svg11.dtd">
<svg width="100%" height="100%" viewBox="0 0 50 50" version="1.1" xmlns="http://www.w3.org/2000/svg" xmlns:xlink="http://www.w3.org/1999/xlink" xml:space="preserve" style="fill-rule:evenodd;clip-rule:evenodd;stroke-linejoin:round;stroke-miterlimit:1.41421;">
    <g id="Layer1">
        <path d="M31.6407,41.6444C31.6404,41.6498 31.6401,41.6552 31.6397,41.6606C31.6319,41.7741 31.6086,41.8866 31.5704,41.9939C31.5228,42.128 31.4521,42.2537 31.3622,42.3641C31.2544,42.4967 31.1194,42.6065 30.9677,42.6851C30.8413,42.7506 30.7038,42.7942 30.5628,42.8136C30.4876,42.824 30.4684,42.8227 30.3926,42.8253C25.3251,42.8253 20.2576,42.8253 15.1901,42.8253C15.1143,42.8227 15.0951,42.824 15.0199,42.8136C14.8789,42.7942 14.7414,42.7506 14.615,42.6851C14.4633,42.6065 14.3283,42.4967 14.2204,42.3641C14.0531,42.1585 13.9583,41.9042 13.9433,41.6444L11.4526,41.6444C11.3585,41.6404 11.3344,41.6424 11.2413,41.6264C10.9966,41.5845 10.7669,41.4686 10.5877,41.2968C10.4855,41.1989 10.4002,41.0836 10.3364,40.9572C10.2727,40.8307 10.2307,40.6936 10.2127,40.5532C10.1992,40.4479 10.1992,40.3409 10.2127,40.2356C10.2626,39.8458 10.4998,39.4948 10.843,39.3031C10.9666,39.2341 11.1018,39.1863 11.2413,39.1624C11.3344,39.1464 11.3585,39.1484 11.4526,39.1444L18.8664,39.1444C18.7107,39.0974 18.556,39.0468 18.4026,38.9928C16.8277,38.4381 15.3891,37.5167 14.2228,36.3223C13.1177,35.1905 12.2629,33.8197 11.7373,32.3275C11.467,31.56 11.2837,30.7623 11.1913,29.954C11.144,29.5397 11.1229,29.124 11.1203,28.7071L11.1203,21.7647L34.4624,21.7647C34.4624,22.6528 34.4644,23.5409 34.4661,24.4289L39.7865,24.4289C39.7865,26.4976 39.8116,28.5664 39.7856,30.6348C39.7824,30.7175 39.7824,30.7172 39.7772,30.7999C39.7485,31.1231 39.6804,31.4388 39.5612,31.7411C39.2241,32.5961 38.5216,33.2818 37.6585,33.5978C37.3262,33.7195 36.9796,33.7805 36.6265,33.7939C35.4848,33.8083 34.3429,33.8019 33.201,33.7976C32.7324,34.6825 32.1423,35.5027 31.4506,36.2282C30.2994,37.4357 28.8728,38.3739 27.3059,38.9476C27.1113,39.0188 26.9146,39.0845 26.7162,39.1444L34.1301,39.1444C34.2242,39.1484 34.2483,39.1464 34.3414,39.1624C34.4809,39.1863 34.6161,39.2341 34.7397,39.3031C34.8633,39.3722 34.9749,39.4623 35.0684,39.5686C35.1386,39.6482 35.1985,39.7369 35.2463,39.8316C35.4232,40.1826 35.4232,40.6062 35.2463,40.9572C35.1825,41.0836 35.0972,41.1989 34.995,41.2968C34.8158,41.4686 34.5861,41.5845 34.3414,41.6264C34.2483,41.6424 34.2242,41.6404 34.1301,41.6444L31.6407,41.6444ZM22.0308,37.1097C22.5755,37.1097 23.1202,37.1125 23.6648,37.109C23.7732,37.107 23.8813,37.1035 23.9895,37.0987C24.2735,37.0825 24.5563,37.0558 24.8377,37.0128C25.4535,36.9187 26.0586,36.7556 26.6381,36.527C27.8337,36.0556 28.9145,35.3062 29.7788,34.3553C30.5307,33.5279 31.1159,32.5516 31.4874,31.4969C31.7072,30.8727 31.8521,30.2225 31.9189,29.5642C31.9481,29.2765 31.9606,28.9882 31.9624,28.6992L31.9624,24.2647L13.6203,24.2647C13.6203,25.7805 13.6114,27.2964 13.621,28.8122C13.6271,29.1344 13.6473,29.4556 13.6879,29.7754C13.7667,30.3956 13.9151,31.0066 14.1301,31.5936C14.5259,32.6747 15.1472,33.6699 15.9415,34.503C16.7816,35.3842 17.8118,36.0804 18.9446,36.527C19.5241,36.7556 20.1292,36.9187 20.745,37.0128C21.0264,37.0558 21.3092,37.0825 21.5932,37.0987C21.7391,37.1052 21.8848,37.1088 22.0308,37.1097ZM34.1442,31.3275C34.9643,31.3415 35.784,31.3444 36.6019,31.2925C36.8826,31.2676 37.1313,31.0877 37.2353,30.824C37.2672,30.7431 37.2829,30.6582 37.2862,30.5715L37.2865,30.5439L37.2865,26.9289L34.4681,26.9289C34.4675,27.5672 34.4656,28.2055 34.4615,28.8438C34.4545,29.215 34.4335,29.5851 34.3914,29.954C34.3385,30.4165 34.2559,30.8756 34.1442,31.3275ZM20.0752,20.6539C19.8792,20.6426 19.6921,20.5987 19.5182,20.5051C19.4114,20.4476 19.3132,20.3746 19.2274,20.2889C19.1416,20.2032 19.0684,20.1051 19.0108,19.9984C18.8247,19.6538 18.8122,19.232 18.9775,18.8769C19.0389,18.745 19.1234,18.6241 19.2262,18.5211C19.2781,18.4692 19.3343,18.4247 19.393,18.381C19.5114,18.303 19.6327,18.2297 19.7516,18.1525C20.0542,17.9508 20.3485,17.7362 20.616,17.4893C20.7809,17.3372 20.9363,17.1731 21.0687,16.9917C21.164,16.8611 21.2477,16.7206 21.3055,16.5693C21.3423,16.4731 21.3679,16.3729 21.378,16.2703C21.415,15.8962 21.2459,15.5295 21.051,15.222C20.9958,15.1349 20.9372,15.0496 20.8743,14.9678C20.8579,14.9464 20.8383,14.9277 20.8206,14.9074C20.7767,14.8572 20.7664,14.8443 20.7237,14.7931C20.6614,14.7161 20.6011,14.638 20.5425,14.5581C20.3184,14.2425 20.1302,13.9046 19.9929,13.5421C19.7201,12.8216 19.6558,12.0345 19.7948,11.2775C19.8739,10.8466 20.0163,10.4284 20.209,10.0352C20.5241,9.39238 20.971,8.81914 21.4938,8.33212C21.8275,8.02128 22.1926,7.74469 22.5788,7.50228C22.7043,7.42352 22.8313,7.34026 22.9674,7.28041C23.0562,7.24138 23.1495,7.21273 23.2449,7.19522C23.4119,7.16456 23.5848,7.16837 23.7503,7.20637C24.1814,7.30535 24.5357,7.63489 24.6655,8.05775C24.7011,8.17364 24.7197,8.29465 24.7206,8.41588C24.7216,8.56137 24.697,8.70685 24.6482,8.84392C24.5831,9.02681 24.475,9.19362 24.3348,9.32783C24.2818,9.37856 24.2245,9.42176 24.1648,9.46417C24.08,9.5173 23.9934,9.56735 23.9081,9.6197C23.7369,9.72962 23.5705,9.84549 23.4128,9.97427C23.3154,10.0538 23.2213,10.1373 23.1313,10.225C23.0468,10.3073 22.9658,10.3933 22.8891,10.483C22.4532,10.9931 22.1268,11.6726 22.2484,12.3575C22.2682,12.4692 22.2997,12.5787 22.3416,12.6841C22.4082,12.8514 22.5009,13.0075 22.6108,13.15C22.6698,13.2265 22.7354,13.297 22.7988,13.3697C22.8596,13.4466 22.8586,13.4469 22.9175,13.5251C23.2189,13.9448 23.4806,14.3899 23.6542,14.8783C23.8034,15.2982 23.886,15.7418 23.8832,16.1879C23.8802,16.666 23.7787,17.1397 23.5937,17.5801C23.4454,17.9334 23.2455,18.2635 23.0122,18.5671C22.4373,19.3153 21.6767,19.8941 20.8851,20.3953L20.7676,20.4679C20.6831,20.5168 20.5976,20.5598 20.5047,20.5907C20.4117,20.6216 20.3175,20.6382 20.2205,20.6496C20.1479,20.6539 20.1484,20.6539 20.0752,20.6539ZM25.6097,19.8432C25.4772,19.8367 25.351,19.8044 25.2367,19.7354C24.9964,19.5903 24.8548,19.315 24.8766,19.0351C24.8822,18.9626 24.8985,18.8909 24.9247,18.8231C24.9719,18.7008 25.0515,18.5918 25.1535,18.5095C25.2181,18.4574 25.2916,18.417 25.3592,18.3688C25.3991,18.3386 25.4378,18.3075 25.476,18.2751C25.6002,18.1638 25.7104,18.0401 25.803,17.9011C26.1526,17.3762 26.2619,16.6649 26.0206,16.0739C25.9869,15.9914 25.9463,15.9118 25.8987,15.8365C25.88,15.8068 25.861,15.7753 25.8382,15.7485C25.7982,15.7012 25.7565,15.6553 25.7169,15.6076C25.6699,15.5484 25.6703,15.5489 25.6246,15.4883C25.4818,15.2884 25.3599,15.0759 25.2816,14.842C25.2275,14.6805 25.1943,14.512 25.1859,14.3418C25.1799,14.2206 25.1864,14.0989 25.2053,13.9791C25.2202,13.8844 25.2428,13.7909 25.2723,13.6997C25.4496,13.1529 25.8652,12.7228 26.3181,12.3876C26.4628,12.2804 26.6134,12.1813 26.7675,12.0882C26.8369,12.0463 26.9063,12.0015 26.9809,11.9692C27.0743,11.9286 27.1759,11.9073 27.2778,11.907C27.3796,11.9068 27.4813,11.9275 27.575,11.9676C27.6418,11.9963 27.7045,12.0347 27.7603,12.0813C27.9997,12.2811 28.091,12.6184 27.9851,12.9117C27.9347,13.0515 27.8446,13.1657 27.7291,13.2575C27.6693,13.2996 27.6056,13.3345 27.543,13.3723C27.4752,13.4132 27.4088,13.456 27.3429,13.4998C27.2327,13.5753 27.1251,13.6542 27.0249,13.7425C26.9586,13.8009 26.8954,13.8631 26.8388,13.931C26.7953,13.9832 26.7552,14.0391 26.7251,14.1002C26.706,14.1389 26.6908,14.1804 26.6858,14.2235C26.6769,14.3005 26.7037,14.3771 26.7374,14.4451C26.8029,14.577 26.9013,14.6839 26.9967,14.7942C27.0324,14.8398 27.0317,14.8397 27.0665,14.8864C27.2362,15.1297 27.3741,15.3895 27.4709,15.6703C27.8491,16.7685 27.609,18.0385 26.8957,18.9482C26.7092,19.186 26.4909,19.3989 26.2473,19.5778C26.1415,19.6555 26.0303,19.7376 25.9079,19.7876C25.8535,19.8098 25.7977,19.8236 25.7401,19.8343C25.6963,19.8399 25.6539,19.8427 25.6097,19.8432Z" style="fill:black;"/>
    </g>
</svg>
