<?xml version="1.0" encoding="iso-8859-1"?>
<!DOCTYPE svg PUBLIC "-//W3C//DTD SVG 1.1//EN" "http://www.w3.org/Graphics/SVG/1.1/DTD/svg11.dtd">
<svg version="1.1" id="Layer_1" xmlns="http://www.w3.org/2000/svg" xmlns:xlink="http://www.w3.org/1999/xlink" x="0px" y="0px"
	 width="26.98px" height="17.985px" viewBox="0 0 26.98 17.985" style="enable-background:new 0 0 26.98 17.985;"
	 xml:space="preserve">
<rect y="0" style="fill:#01247D;" width="26.979" height="17.986"/>
<polygon style="fill:#FFFFFF;" points="26.979,0 23.884,0 16.188,5.129 16.188,0 10.792,0 10.792,5.13 3.096,0 0,0 0,2.083
	6.321,6.296 0,6.296 0,11.692 6.343,11.692 0,15.921 0,17.985 3.119,17.985 10.792,12.872 10.792,17.985 16.188,17.985
	16.188,12.872 23.86,17.985 26.979,17.985 26.979,15.921 20.638,11.692 26.979,11.692 26.979,6.296 20.659,6.296 26.979,2.083 "/>
<polygon style="fill:#CF142B;" points="26.979,7.419 15.063,7.419 15.063,0 11.916,0 11.916,7.419 0,7.419 0,10.565 11.916,10.565
	11.916,17.985 15.063,17.985 15.063,10.565 26.979,10.565 "/>
<polygon style="fill:#CF142B;" points="26.979,17.935 26.979,16.513 19.728,11.692 17.593,11.692 "/>
<polygon style="fill:#CF142B;" points="26.979,0 24.847,0 16.188,5.757 16.188,6.296 17.517,6.296 26.979,0.001 "/>
<polygon style="fill:#CF142B;" points="9.39,11.692 0,17.935 0,17.985 2.06,17.985 10.792,12.179 10.792,11.692 "/>
<polygon style="fill:#CF142B;" points="0,0.011 0,1.431 7.312,6.296 9.448,6.296 "/>
</svg>
