<?xml version="1.0" standalone="no"?>
<!DOCTYPE svg PUBLIC "-//W3C//DTD SVG 1.1//EN" "http://www.w3.org/Graphics/SVG/1.1/DTD/svg11.dtd">
<svg width="100%" height="100%" viewBox="0 0 50 50" version="1.1" xmlns="http://www.w3.org/2000/svg" xmlns:xlink="http://www.w3.org/1999/xlink" xml:space="preserve" style="fill-rule:evenodd;clip-rule:evenodd;stroke-linejoin:round;stroke-miterlimit:1.41421;">
    <g id="Layer1">
        <path d="M42.5633,26.8182C42.524,27.2164 42.4716,27.6133 42.4062,28.008C42.1118,29.7845 41.5522,31.5152 40.7509,33.1277C39.837,34.967 38.6109,36.6484 37.1415,38.0832C35.7238,39.4675 34.0819,40.62 32.2967,41.4802C30.7412,42.2297 29.0797,42.7557 27.3762,43.0379C26.5362,43.1771 25.6896,43.2517 24.8389,43.2786C24.6033,43.2831 24.6037,43.2831 24.3682,43.2846C23.5133,43.2791 22.6613,43.2258 21.8143,43.1073C20.0994,42.8673 18.4203,42.3816 16.8424,41.6682C15.1016,40.8812 13.4873,39.8189 12.0736,38.5341C10.5555,37.1543 9.27122,35.5199 8.29196,33.7172C7.43588,32.1412 6.81465,30.4394 6.4551,28.6823C6.05153,26.7102 5.97663,24.6712 6.23043,22.6744C6.46781,20.8067 6.99631,18.9781 7.79284,17.2722C8.72446,15.2768 10.0195,13.4551 11.595,11.9168C13.2252,10.325 15.1516,9.04098 17.2503,8.15333C19.4243,7.23384 21.7726,6.74678 24.1325,6.71691C26.5008,6.68694 28.8693,7.11558 31.0731,7.98457C33.1954,8.82142 35.1545,10.06 36.8242,11.6143C37.0303,11.8062 37.2319,12.0028 37.4289,12.2039L33.3493,15.2113C32.2306,14.1846 30.9373,13.3501 29.5384,12.7585C27.9595,12.0907 26.2544,11.7383 24.5406,11.7166C22.8197,11.6948 21.099,12.0046 19.4976,12.6361C17.9555,13.2442 16.5323,14.1447 15.3192,15.2741C14.1482,16.3642 13.1753,17.6646 12.4632,19.0974C11.8574,20.3164 11.4425,21.6283 11.2369,22.9738C11.0071,24.4782 11.0352,26.023 11.3215,27.5176C11.5665,28.7964 12.0023,30.0373 12.6098,31.1889C13.2566,32.4148 14.0965,33.5374 15.0882,34.5057C16.1189,35.5121 17.3123,36.3504 18.6102,36.9758C19.7379,37.5191 20.9425,37.9005 22.1775,38.1051C22.7889,38.2064 23.405,38.2605 24.0241,38.2801C24.1963,38.2834 24.196,38.2834 24.3682,38.2845C24.9912,38.2805 25.612,38.2418 26.2293,38.1554C27.4727,37.9815 28.6901,37.6294 29.8342,37.1121C31.1479,36.5182 32.3621,35.7081 33.4173,34.7259C34.4313,33.782 35.2973,32.6803 35.9733,31.4711C36.6071,30.3373 37.0723,29.1107 37.3486,27.8415C37.3861,27.6693 37.4202,27.4964 37.4507,27.3228L42.5633,26.8182ZM22.7466,28.1584C22.7466,28.1584 22.7461,28.1582 22.7451,28.1579C22.496,28.0817 22.3119,27.8705 22.2705,27.6134C22.2291,27.3562 22.3375,27.0979 22.5501,26.9474C22.551,26.9467 22.5514,26.9464 22.5514,26.9464C22.5514,26.9464 39.3208,23.7149 42.4239,23.117C42.737,23.0566 43.0612,23.1283 43.3196,23.3151C43.3665,23.349 43.4157,23.3845 43.4659,23.4208C43.6997,23.5897 43.8568,23.8446 43.9027,24.1294C43.9486,24.4141 43.8794,24.7055 43.7105,24.9393C43.6742,24.9895 43.6387,25.0387 43.6048,25.0856C43.418,25.344 43.1328,25.5139 42.8166,25.5549C36.1266,26.4227 29.4366,27.2906 22.7466,28.1584ZM24.1288,24.2907C23.8701,24.3213 23.6166,24.202 23.4752,23.9833C23.3338,23.7645 23.3291,23.4844 23.4631,23.261C23.4636,23.2601 23.4639,23.2597 23.4639,23.2597C23.4639,23.2597 37.5143,13.5518 40.1142,11.7554C40.3766,11.5741 40.7021,11.5093 41.0139,11.5762C41.0705,11.5883 41.1297,11.6011 41.1904,11.6141C41.4724,11.6746 41.7188,11.8447 41.8754,12.0869C42.032,12.3292 42.086,12.6237 42.0255,12.9057C42.0124,12.9663 41.9997,13.0256 41.9876,13.0822C41.9206,13.3939 41.7279,13.6642 41.4549,13.8291C38.7497,15.4626 24.1304,24.2905 24.1304,24.2905C24.1299,24.2906 24.1293,24.2907 24.1288,24.2907ZM42.3842,21.8628L37.4974,22.9607C37.3073,21.7261 36.9416,20.5196 36.413,19.3875C36.2523,19.0432 36.0766,18.706 35.8868,18.377L40.2443,15.9245C40.4225,16.2353 40.5915,16.5514 40.7509,16.8723C41.5329,18.4458 42.0844,20.1317 42.3842,21.8628Z" style="fill:black;"/>
    </g>
</svg>
