<?xml version="1.0" standalone="no"?>
<!DOCTYPE svg PUBLIC "-//W3C//DTD SVG 1.1//EN" "http://www.w3.org/Graphics/SVG/1.1/DTD/svg11.dtd">
<svg width="100%" height="100%" viewBox="0 0 50 50" version="1.1" xmlns="http://www.w3.org/2000/svg" xmlns:xlink="http://www.w3.org/1999/xlink" xml:space="preserve" style="fill-rule:evenodd;clip-rule:evenodd;stroke-linejoin:round;stroke-miterlimit:1.41421;">
    <g id="Layer1">
        <path d="M36.226,30.6842C37.8749,30.6442 39.5231,30.5837 41.1707,30.4963C41.2172,30.4929 41.2629,30.4866 41.3086,30.4773C41.4293,30.4502 41.5436,30.4023 41.6458,30.3323C41.9828,30.1015 42.137,29.6676 42.0197,29.276C41.9882,29.1708 41.9384,29.0711 41.8731,28.9827C41.7944,28.8762 41.6943,28.7895 41.5801,28.7229C36.6338,25.973 31.6913,23.2112 26.6535,20.6326C26.4291,20.5222 26.1966,20.4316 25.9549,20.3668C25.3688,20.2096 24.746,20.2 24.1553,20.3389C23.8745,20.405 23.6047,20.5054 23.3461,20.6326C18.2961,23.2174 13.222,25.7807 8.38436,28.7438C8.27372,28.8149 8.17796,28.9054 8.10405,29.0144C8.04242,29.1054 7.99672,29.207 7.96949,29.3134C7.94697,29.4014 7.93715,29.4926 7.94059,29.5834C7.95291,29.9091 8.13649,30.2118 8.41944,30.3735C8.5275,30.4352 8.64585,30.4736 8.76893,30.4906C8.81159,30.4956 8.85397,30.4979 8.8969,30.4983C10.389,30.4983 11.8814,30.5092 13.374,30.5266L13.374,29.9673C13.3792,29.8349 13.394,29.7078 13.4352,29.5811C13.5473,29.236 13.8104,28.9513 14.1457,28.8125C14.2364,28.7749 14.3315,28.7481 14.4285,28.7327C14.5148,28.7191 14.5369,28.7208 14.624,28.7173L34.976,28.7173C35.1085,28.7225 35.2355,28.7373 35.3623,28.7785C35.7073,28.8906 35.992,29.1538 36.1308,29.489C36.1684,29.5797 36.1952,29.6748 36.2106,29.7718C36.2243,29.8581 36.2226,29.8803 36.226,29.9673L36.226,30.6842ZM36.226,33.0354L36.226,44.6005C36.2208,44.7329 36.206,44.86 36.1648,44.9867C36.0527,45.3318 35.7896,45.6165 35.4544,45.7553C35.3636,45.7929 35.2685,45.8197 35.1715,45.8351C35.0853,45.8487 35.0631,45.847 34.976,45.8505C28.192,45.8505 21.408,45.8505 14.624,45.8505C14.5369,45.847 14.5148,45.8487 14.4285,45.8351C14.3315,45.8197 14.2364,45.7929 14.1457,45.7553C13.8104,45.6165 13.5473,45.3318 13.4352,44.9867C13.394,44.86 13.3792,44.7329 13.374,44.6005L13.374,33.0041C11.8772,33.0005 10.3804,32.9983 8.88362,32.9983C8.4042,32.9932 7.93178,32.8975 7.49276,32.7029C7.10768,32.5322 6.75471,32.2906 6.45614,31.9935C6.18821,31.7269 5.96465,31.4162 5.79719,31.0774C5.65726,30.7942 5.55662,30.4918 5.49855,30.1813C5.31484,29.199 5.5757,28.1639 6.2019,27.3852C6.474,27.0469 6.80728,26.7692 7.18158,26.5507C12.1378,23.7951 17.131,21.1059 22.1375,18.4428C22.5974,18.2074 23.0797,18.0236 23.5829,17.9052C23.6371,17.8925 23.6915,17.8805 23.7459,17.8693C23.7239,16.9072 23.7498,15.9443 23.7498,14.9819C23.7539,14.8503 23.7698,14.7229 23.8105,14.5971C23.9238,14.2469 24.1925,13.9591 24.534,13.8219C24.6567,13.7726 24.7827,13.748 24.9137,13.7349C25.0338,13.7303 25.1537,13.7299 25.2736,13.7215C25.8828,13.6713 26.4716,13.4705 26.979,13.1277C27.403,12.8413 27.7636,12.4631 28.0293,12.0258C28.1782,11.7808 28.2971,11.5177 28.3822,11.2439C28.6549,10.3673 28.5733,9.39653 28.1545,8.57884C27.9859,8.24972 27.7655,7.94758 27.504,7.68612C27.2223,7.40443 26.8934,7.17036 26.5345,6.99743C26.1535,6.81386 25.7398,6.70024 25.3186,6.66286C24.8718,6.62319 24.4178,6.66727 23.9877,6.79518C23.554,6.92418 23.1467,7.13795 22.793,7.42014C22.5058,7.64934 22.2544,7.92305 22.0505,8.22878C21.9573,8.36857 21.8762,8.51483 21.802,8.66545L21.7651,8.73477C21.7236,8.80216 21.6811,8.86671 21.6294,8.92694C21.5099,9.06615 21.3599,9.17829 21.1925,9.25339C21.0731,9.307 20.9452,9.34166 20.8151,9.35573C20.3661,9.40426 19.9152,9.19942 19.6564,8.82939C19.5813,8.7221 19.5234,8.60303 19.4851,8.4778C19.4393,8.32748 19.4221,8.1687 19.4348,8.01206C19.4433,7.90767 19.4649,7.80439 19.499,7.70538C19.5264,7.62592 19.5634,7.55071 19.6012,7.4758C19.6485,7.38193 19.6982,7.28926 19.7503,7.19797C20.0263,6.71468 20.3693,6.27002 20.7663,5.88004C21.3648,5.29209 22.0852,4.83073 22.8705,4.53497C24.074,4.08167 25.4161,4.02672 26.6531,4.37798C27.2194,4.53882 27.7615,4.78349 28.2571,5.10125C28.8675,5.49262 29.4063,5.99408 29.8405,6.57479C30.1616,7.0041 30.4253,7.47607 30.6219,7.97482C31.1606,9.34096 31.1793,10.8887 30.6745,12.2676C30.4899,12.7719 30.2373,13.2509 29.9261,13.6886C29.534,14.2399 29.0494,14.7246 28.498,15.1166C28.0201,15.4565 27.4928,15.7263 26.9373,15.9143C26.7117,15.9906 26.4823,16.0513 26.2498,16.1019L26.2498,17.8687C26.3994,17.8994 26.5479,17.9357 26.6949,17.9776C27.0994,18.0928 27.4879,18.2513 27.8621,18.4428C32.8686,21.1059 37.8617,23.7952 42.818,26.5507C43.1923,26.7692 43.5256,27.0469 43.7977,27.3852C44.3925,28.1248 44.6597,29.0979 44.5248,30.0375C44.4764,30.3745 44.378,30.7042 44.2336,31.0125C44.073,31.3554 43.8555,31.6711 43.5926,31.9435C43.3002,32.2465 42.9523,32.4952 42.5709,32.6736C42.1345,32.8779 41.6636,32.9824 41.1829,32.9976C39.5306,33.0152 37.8783,33.0274 36.226,33.0354Z" style="fill:black;"/>
    </g>
</svg>
