<?xml version="1.0" standalone="no"?>
<!DOCTYPE svg PUBLIC "-//W3C//DTD SVG 1.1//EN" "http://www.w3.org/Graphics/SVG/1.1/DTD/svg11.dtd">
<svg width="100%" height="100%" viewBox="0 0 50 50" version="1.1" xmlns="http://www.w3.org/2000/svg" xmlns:xlink="http://www.w3.org/1999/xlink" xml:space="preserve" style="fill-rule:evenodd;clip-rule:evenodd;stroke-linejoin:round;stroke-miterlimit:1.41421;">
    <g id="Layer1">
        <path d="M10.7787,38.4319C10.6611,38.4265 10.5507,38.4062 10.4444,38.3533C10.3616,38.3121 10.2867,38.2555 10.2244,38.1872C10.0181,37.9608 9.97077,37.6218 10.1073,37.3476C10.1382,37.2856 10.1777,37.2279 10.2244,37.1767C10.3337,37.0568 10.4814,36.9745 10.6409,36.9447C10.7015,36.9334 10.7173,36.9348 10.7787,36.9319L26.9519,36.9319C27.0694,36.9374 27.1799,36.9576 27.2862,37.0106C27.5604,37.1471 27.7269,37.4461 27.6987,37.7511C27.6923,37.8202 27.6763,37.8882 27.6512,37.9529C27.6178,38.0391 27.5684,38.1189 27.5061,38.1872C27.3968,38.3071 27.2491,38.3894 27.0897,38.4192C27.029,38.4305 27.0133,38.4291 26.9519,38.4319C21.5608,38.4319 16.1697,38.4319 10.7787,38.4319ZM38.8846,38.1946C36.555,38.2631 34.2233,38.1975 31.8926,38.1946C31.8402,38.1945 31.7878,38.1945 31.7355,38.1945C31.6412,38.1918 31.5491,38.1841 31.4569,38.163L31.4564,38.1629L31.4563,38.1629C31.4528,38.1621 31.4493,38.1613 31.4458,38.1604C31.3587,38.1397 31.274,38.1095 31.1935,38.0708L31.1912,38.0698L31.1886,38.0684C31.1682,38.0585 31.148,38.048 31.1282,38.037C29.821,37.3564 28.5439,36.6198 27.2605,35.895C27.1578,35.9073 27.0555,35.9118 26.9519,35.9143C22.0872,35.9143 17.2224,35.9143 12.3577,35.9143C12.2382,35.9114 12.1205,35.9059 12.0019,35.8888C11.6877,35.8437 11.3827,35.7381 11.1077,35.5793C10.9016,35.4603 10.7127,35.3118 10.5484,35.1395C10.0519,34.6187 9.80065,33.8929 9.86905,33.1766C9.89167,32.9397 9.94833,32.7061 10.0368,32.4851C10.1548,32.1904 10.3293,31.9189 10.5484,31.6891C10.7675,31.4593 11.0304,31.2721 11.3192,31.1402C11.5357,31.0413 11.7663,30.9736 12.0019,30.9397C12.1205,30.9227 12.2382,30.9171 12.3577,30.9143L26.9519,30.9143C27.0714,30.9171 27.1891,30.9227 27.3077,30.9397C27.5433,30.9736 27.7739,31.0413 27.9904,31.1402C28.0576,31.1709 28.1234,31.2046 28.1876,31.2411C28.2745,31.2815 28.3567,31.3317 28.4321,31.3909C28.4622,31.4144 28.4903,31.4394 28.5175,31.4654C28.6036,31.5345 28.685,31.6092 28.7612,31.6891C28.8678,31.8008 28.9638,31.9225 29.0479,32.0518L32.2956,35.6945L38.8929,35.6945L38.9669,35.6967L38.9698,35.6968C38.9813,35.6979 38.9928,35.699 39.0042,35.7002C39.0656,35.7064 39.126,35.7148 39.1865,35.7294L39.2179,35.7375L39.2491,35.7463L39.2678,35.7521L39.2816,35.7565C39.3001,35.7625 39.3184,35.769 39.3366,35.7759L39.3579,35.7842L39.3889,35.7972L39.4197,35.811L39.45,35.8256L39.4739,35.8378L39.5024,35.8532L39.5305,35.8694L39.5582,35.8862L39.5854,35.9038L39.5988,35.9129L39.6121,35.9221L39.6253,35.9316L39.6384,35.9411L39.6514,35.9509L39.6803,35.9737L39.6886,35.9804C39.7146,36.0019 39.7398,36.0245 39.7641,36.0481L39.7835,36.0674L39.8085,36.0935L39.8339,36.1217L39.8517,36.1426L39.8737,36.1695L39.8878,36.1878L39.9017,36.2064L39.9214,36.2341L39.9349,36.254C40.0058,36.361 40.06,36.4789 40.0952,36.6024C40.1336,36.7375 40.148,36.8772 40.1398,37.0152C40.1325,37.151 40.1032,37.2861 40.0512,37.4142C40.0048,37.5287 39.9414,37.6362 39.8635,37.7321L39.8613,37.7348L39.8609,37.7353L39.8583,37.7385L39.8547,37.7428L39.8529,37.745L39.8484,37.7503L39.8468,37.7522L39.8458,37.7535L39.8446,37.7549L39.8421,37.7577L39.8393,37.761L39.8367,37.764L39.8349,37.7661L39.8327,37.7686L39.8297,37.772L39.8276,37.7744L39.8257,37.7765L39.8231,37.7794L39.8201,37.7827L39.8183,37.7848L39.8164,37.7868L39.8134,37.7901L39.8105,37.7932L39.8089,37.795L39.8069,37.7971L39.8035,37.8007L39.8008,37.8036L39.7994,37.8051L39.7973,37.8073L39.7936,37.8112L39.7911,37.8137L39.7897,37.8151L39.7875,37.8174L39.7835,37.8215L39.7813,37.8238L39.78,37.8251L39.7775,37.8276L39.7733,37.8317L39.7713,37.8337L39.7702,37.8349L39.7673,37.8377L39.763,37.8418L39.7613,37.8435L39.7602,37.8445L39.7568,37.8478L39.7526,37.8518L39.7512,37.8531L39.7501,37.8541L39.7461,37.8579L39.742,37.8617L39.741,37.8626L39.74,37.8636L39.7349,37.8682L39.7314,37.8714L39.7307,37.872L39.7297,37.8729L39.723,37.8789L39.7206,37.881L39.7203,37.8813C39.67,37.9258 39.616,37.9662 39.5592,38.002L39.5591,38.0021L39.5589,38.0022L39.5523,38.0064L39.5473,38.0094L39.5468,38.0097L39.5462,38.0101L39.5405,38.0136L39.5354,38.0166L39.5345,38.0172L39.5334,38.0178L39.5285,38.0208C39.5227,38.0242 39.5169,38.0276 39.5111,38.0309L39.5095,38.0318L39.5053,38.0341L39.5041,38.0348L39.5033,38.0353C39.497,38.0388 39.4906,38.0423 39.4842,38.0457C39.3231,38.1323 39.1509,38.1753 38.9698,38.1921L38.9684,38.1921L38.9669,38.1923L38.8846,38.1946ZM34.2538,26.7734C36.2024,26.7734 37.7822,28.3531 37.7822,30.3018C37.7822,32.2505 36.2024,33.8302 34.2538,33.8302C32.3051,33.8302 30.7254,32.2505 30.7254,30.3018C30.7254,28.3531 32.3051,26.7734 34.2538,26.7734ZM19.533,29.6643L13.1728,29.6643C13.1845,29.6398 13.1967,29.6155 13.2092,29.5914C14.5097,26.9803 15.8975,24.4135 17.2417,21.8245L17.2425,21.8229C17.2925,21.7269 17.3486,21.6342 17.4105,21.5455L17.411,21.5448L17.4113,21.5444L17.4133,21.5415L17.4185,21.5342L17.4236,21.5269L17.4252,21.5247L17.4259,21.5237L17.4323,21.5148L17.4379,21.507L17.4385,21.5062C17.443,21.5 17.4475,21.4938 17.4521,21.4877L17.4524,21.4872L17.4547,21.4842L17.4646,21.471L17.4664,21.4685L17.4672,21.4676L17.4694,21.4646L17.4778,21.4536L17.4804,21.4502L17.4821,21.4481L17.4894,21.4386L17.4962,21.4299L17.5041,21.4201L17.5125,21.4095L17.5129,21.409L17.5149,21.4064L17.5223,21.3974L17.528,21.3905L17.5301,21.3879L17.5339,21.3832L17.5395,21.3765L17.5436,21.3716L17.5478,21.3666L17.5532,21.3602L17.5569,21.3559L17.5595,21.3528L17.5665,21.3446L17.5727,21.3374L17.5745,21.3354C17.5803,21.3288 17.5861,21.3221 17.592,21.3155L17.5925,21.3149L17.5955,21.3116L17.6081,21.2976L17.611,21.2944L17.6126,21.2926L17.6159,21.2891L17.6247,21.2795L17.6309,21.2728L17.633,21.2706L17.6349,21.2686L17.6414,21.2615L17.653,21.2494L17.6536,21.2488L17.6538,21.2485C17.7514,21.1464 17.8577,21.0526 17.9712,20.9684C18.001,20.9464 18.0312,20.925 18.0619,20.9043L18.0657,20.9017L18.0667,20.9011L18.0693,20.8993L18.08,20.8922L18.0907,20.8851L18.0934,20.8834L18.0943,20.8828L18.0982,20.8803C18.1292,20.8601 18.1607,20.8406 18.1926,20.8218C18.2967,20.7605 18.4052,20.707 18.5169,20.6615L18.5189,20.6606L18.5228,20.6591L18.5352,20.6541L18.5425,20.6512L18.5467,20.6495L18.5525,20.6473L18.5606,20.6441L18.5678,20.6414L18.5747,20.6387L18.5811,20.6363L18.5861,20.6344L18.5928,20.632L18.6028,20.6282L18.6092,20.6259L18.6117,20.625L18.6168,20.6232L18.6311,20.6181L18.637,20.6161L18.6374,20.6159L18.6387,20.6155C18.6979,20.5948 18.7579,20.5764 18.8185,20.5603L18.8198,20.56L18.8208,20.5597L18.8319,20.5568L18.8449,20.5535L18.8462,20.5531L18.8475,20.5528L18.8583,20.5501L18.8696,20.5473L18.8727,20.5466L18.8757,20.5458L18.8848,20.5436L18.8941,20.5415L18.8992,20.5403L18.9043,20.5392L18.9114,20.5375L18.9186,20.5359L18.9258,20.5343L18.933,20.5328L18.938,20.5317L18.9432,20.5306L18.9525,20.5286L18.9617,20.5268L18.9647,20.5261L18.9679,20.5255L18.9793,20.5232L18.9902,20.5211L18.9915,20.5209L18.9928,20.5206L19.006,20.5181C19.1438,20.4926 19.2837,20.4789 19.4237,20.4768L19.425,20.4768L19.4306,20.4767L19.4453,20.4766L19.4492,20.4766L19.4523,20.4765L19.4599,20.4765L19.4698,20.4765L19.5068,20.4769L19.5434,20.4779L19.5736,20.4791L19.5944,20.4801C19.6167,20.4813 19.6389,20.4828 19.6612,20.4846L19.6974,20.4877L19.7218,20.4902L19.7636,20.4949L19.7978,20.4994L19.8312,20.5041L19.8527,20.5074L19.8678,20.5099C19.9724,20.5272 20.0759,20.5511 20.1774,20.5815L20.2134,20.5926L20.2341,20.5992L20.2548,20.6061L20.2726,20.6121C20.2877,20.6173 20.3028,20.6226 20.3178,20.6281L20.3462,20.6387L20.3778,20.6509L20.4183,20.6672L20.4384,20.6757L20.4584,20.6843L20.4873,20.6971L20.5152,20.7099C20.5349,20.7191 20.5545,20.7285 20.574,20.7383L20.6071,20.7551L20.6366,20.7706L20.6652,20.7862L20.6934,20.802L20.7212,20.8181L20.7381,20.828L20.7649,20.8443L20.7915,20.8609L20.8029,20.8682C21.0374,21.0182 21.2458,21.2069 21.4186,21.4243C22.5697,22.5442 23.6418,23.7465 24.8277,24.8291C24.9161,24.9051 25.0129,24.9644 25.1207,25.0086C26.4335,25.5021 27.7866,25.8807 29.1199,26.3159C29.3039,26.3812 29.4706,26.4768 29.6102,26.6147C29.7019,26.7051 29.7794,26.8098 29.8391,26.9239C30.041,27.309 30.0257,27.7833 29.7995,28.1546C29.7324,28.2646 29.6484,28.364 29.5511,28.4484C29.4213,28.561 29.2684,28.6462 29.1044,28.6974C29.0425,28.7167 28.9801,28.7293 28.9164,28.7405C28.8518,28.7484 28.7889,28.7529 28.7239,28.7541C28.615,28.7506 28.5117,28.7366 28.4058,28.7109C27.0568,28.3087 25.7288,27.8388 24.3906,27.402C24.103,27.3035 23.829,27.1758 23.5742,27.0093C23.4027,26.8973 23.245,26.7693 23.0939,26.6314C22.6019,26.155 22.1153,25.6732 21.631,25.1891C21.5328,25.7595 21.4326,26.3295 21.3368,26.9002C21.3055,27.0693 21.2631,27.2342 21.2005,27.3946C21.117,27.6089 21.0028,27.8054 20.8678,27.991C20.4287,28.5534 19.9824,29.1101 19.533,29.6643ZM19.535,13.9785C20.1576,13.4267 20.9767,13.0918 21.8741,13.0918C23.8228,13.0918 25.4025,14.6715 25.4025,16.6201C25.4025,18.5688 23.8228,20.1485 21.8741,20.1485C19.9254,20.1485 18.3457,18.5688 18.3457,16.6201C18.3457,16.0416 18.4849,15.4956 18.7317,15.0138L18.7362,15.005L18.7364,15.0046L18.7366,15.0043L18.7379,15.0019L18.7408,14.9962L18.7412,14.9955L18.7415,14.9949L18.7432,14.9917L18.7454,14.9873L18.7459,14.9864L18.7464,14.9854L18.7483,14.9818L18.75,14.9785L18.7506,14.9775L18.7514,14.9759L18.7535,14.972L18.7547,14.9697L18.7552,14.9687L18.7564,14.9665L18.7586,14.9623L18.7594,14.9609L18.7598,14.9601L18.7614,14.9571L18.7638,14.9527L18.7641,14.9522L18.7643,14.9517C18.9458,14.6141 19.1807,14.3095 19.4576,14.0491L19.4578,14.0489L19.4583,14.0484L19.4628,14.0443L19.4647,14.0425L19.4651,14.0421L19.4663,14.041L19.4705,14.037L19.4719,14.0358L19.4724,14.0353L19.4743,14.0335L19.4783,14.0298L19.4792,14.029L19.4797,14.0285L19.4825,14.0259L19.486,14.0227L19.4866,14.0222L19.487,14.0218L19.4911,14.018L19.4938,14.0155L19.4941,14.0153C19.4966,14.013 19.4991,14.0107 19.5017,14.0084L19.5095,14.0013L19.5116,13.9994L19.5127,13.9984L19.5141,13.9971L19.5174,13.9942L19.5228,13.9893L19.5237,13.9885L19.5241,13.9882C19.5276,13.985 19.5312,13.9819 19.5347,13.9787L19.5348,13.9786L19.535,13.9785ZM17.8827,15.0768C17.179,14.8305 16.6743,14.1606 16.6743,13.3728C16.6743,12.3761 17.4823,11.5681 18.479,11.5681C19.2385,11.5681 19.8884,12.0372 20.1548,12.7014C20.1408,12.7075 20.1269,12.7137 20.113,12.72C19.6433,12.9323 19.2132,13.2304 18.8488,13.5948C18.4843,13.9593 18.1863,14.3894 17.9739,14.8591C17.9415,14.9308 17.9111,15.0034 17.8827,15.0768Z" style="fill:black;"/>
    </g>
</svg>
