<?xml version="1.0" standalone="no"?>
<!DOCTYPE svg PUBLIC "-//W3C//DTD SVG 1.1//EN" "http://www.w3.org/Graphics/SVG/1.1/DTD/svg11.dtd">
<svg width="100%" height="100%" viewBox="0 0 40 40" version="1.1" xmlns="http://www.w3.org/2000/svg" xmlns:xlink="http://www.w3.org/1999/xlink" xml:space="preserve" style="fill-rule:evenodd;clip-rule:evenodd;stroke-linejoin:round;stroke-miterlimit:1.41421;">
    <g id="Layer1">
        <path d="M7.71606,31.6482C7.57935,31.644 7.54478,31.646 7.40884,31.6292C7.15406,31.5977 6.90439,31.5266 6.67116,31.4193C6.39122,31.2905 6.13579,31.1097 5.92128,30.8885C5.74256,30.7042 5.59259,30.4923 5.47815,30.2625C5.36372,30.0327 5.28503,29.7853 5.24565,29.5316C5.14264,28.868 5.31631,28.1775 5.72102,27.6416C5.87573,27.4367 6.06209,27.256 6.27163,27.1077C6.56516,26.8999 6.90318,26.7568 7.25669,26.6907C7.4096,26.6621 7.56098,26.6529 7.71606,26.6482L32.2834,26.6482C32.4202,26.6524 32.4547,26.6503 32.5907,26.6671C32.8454,26.6987 33.0951,26.7697 33.3283,26.877C33.6083,27.0058 33.8637,27.1866 34.0782,27.4078C34.2569,27.5921 34.4069,27.804 34.5214,28.0338C34.6358,28.2636 34.7145,28.511 34.7539,28.7647C34.7932,29.0184 34.7932,29.278 34.7539,29.5316C34.6508,30.1953 34.276,30.8006 33.7279,31.1887C33.4344,31.3964 33.0963,31.5395 32.7428,31.6056C32.5899,31.6342 32.4385,31.6434 32.2834,31.6482C24.0943,31.6482 15.9052,31.6482 7.71606,31.6482ZM7.71606,22.5C7.56098,22.4952 7.4096,22.486 7.25669,22.4574C6.90318,22.3914 6.56516,22.2483 6.27163,22.0405C6.06209,21.8922 5.87573,21.7115 5.72102,21.5066C5.5663,21.3017 5.4435,21.073 5.35818,20.8309C5.13498,20.1975 5.17881,19.4868 5.47815,18.8857C5.59259,18.6558 5.74256,18.444 5.92128,18.2597C6.13579,18.0384 6.39122,17.8576 6.67116,17.7288C6.90439,17.6215 7.15406,17.5505 7.40884,17.5189C7.54478,17.5021 7.57935,17.5042 7.71606,17.5L32.2834,17.5C32.4385,17.5048 32.5899,17.514 32.7428,17.5426C33.0963,17.6086 33.4344,17.7517 33.7279,17.9595C33.9374,18.1078 34.1238,18.2885 34.2785,18.4934C34.4332,18.6983 34.556,18.927 34.6413,19.1691C34.7267,19.4112 34.7744,19.6664 34.7823,19.923C34.8029,20.5943 34.5457,21.2582 34.0782,21.7403C33.8637,21.9616 33.6083,22.1424 33.3283,22.2712C33.0951,22.3785 32.8454,22.4495 32.5907,22.4811C32.4547,22.4979 32.4202,22.4958 32.2834,22.5C24.0943,22.5 15.9052,22.5 7.71606,22.5ZM7.71606,13.3518C7.57935,13.3476 7.54478,13.3497 7.40884,13.3329C7.15406,13.3013 6.90439,13.2303 6.67116,13.123C6.39122,12.9942 6.13579,12.8134 5.92128,12.5922C5.74256,12.4079 5.59259,12.196 5.47815,11.9662C5.17881,11.365 5.13498,10.6543 5.35818,10.021C5.4435,9.77881 5.5663,9.55013 5.72102,9.34525C5.87573,9.14038 6.06209,8.95968 6.27163,8.81134C6.56516,8.60356 6.90318,8.46049 7.25669,8.3944C7.4096,8.36582 7.56098,8.35662 7.71606,8.35184L32.2834,8.35184C32.4202,8.35605 32.4547,8.35395 32.5907,8.37079C32.8454,8.40233 33.0951,8.47337 33.3283,8.58067C33.6083,8.70947 33.8637,8.89028 34.0782,9.1115C34.2569,9.29581 34.4069,9.50768 34.5214,9.73749C34.8207,10.3386 34.8645,11.0493 34.6413,11.6827C34.556,11.9249 34.4332,12.1535 34.2785,12.3584C34.1238,12.5633 33.9374,12.744 33.7279,12.8923C33.4344,13.1001 33.0963,13.2432 32.7428,13.3093C32.5899,13.3379 32.4385,13.3471 32.2834,13.3518C24.0943,13.3518 15.9052,13.3518 7.71606,13.3518Z" style="fill:black;"/>
    </g>
</svg>
