<?xml version="1.0" standalone="no"?>
<!DOCTYPE svg PUBLIC "-//W3C//DTD SVG 1.1//EN" "http://www.w3.org/Graphics/SVG/1.1/DTD/svg11.dtd">
<svg width="100%" height="100%" viewBox="0 0 50 50" version="1.1" xmlns="http://www.w3.org/2000/svg" xmlns:xlink="http://www.w3.org/1999/xlink" xml:space="preserve" style="fill-rule:evenodd;clip-rule:evenodd;stroke-linejoin:round;stroke-miterlimit:1.41421;">
    <g id="Layer1">
        <path d="M24.962,40.9676C24.681,40.959 24.4056,40.9125 24.1411,40.8157C23.4676,40.5692 22.9223,40.0323 22.6657,39.3626C22.5649,39.0995 22.5141,38.8249 22.5012,38.5441C22.4708,36.5473 22.4708,34.5499 22.5012,32.5531C22.5188,32.1696 22.6114,31.7973 22.7919,31.4571C22.9111,31.2326 23.0647,31.0265 23.2458,30.8481C23.4089,30.6876 23.5939,30.5496 23.7944,30.4393C24.4226,30.0934 25.1856,30.0351 25.8591,30.2816C26.1457,30.3864 26.4124,30.544 26.6425,30.7445C26.8917,30.9617 27.0969,31.2284 27.243,31.525C27.4016,31.8473 27.4825,32.1953 27.4989,32.5531C27.5294,34.5499 27.5294,36.5473 27.4989,38.5441C27.4861,38.8249 27.4353,39.0995 27.3345,39.3626C27.0872,40.0078 26.5717,40.5312 25.9303,40.7884C25.6927,40.8836 25.4449,40.9373 25.1905,40.9606C25.1141,40.9653 25.0385,40.9676 24.962,40.9676ZM26.6452,18.0751C28.4284,18.4053 30.0847,19.2681 31.3851,20.5685C33.0782,22.2616 34.0294,24.5579 34.0294,26.9523C34.0294,29.6114 34.0294,32.3062 34.0294,34.1769C34.0294,35.5392 32.925,36.6437 31.5626,36.6437L30.0131,36.6437C30.0184,35.2697 30.0137,33.8956 29.9989,32.5218C29.992,32.3063 29.9758,32.0923 29.9435,31.8791C29.8681,31.3825 29.7175,30.8979 29.4982,30.4461C29.2162,29.865 28.821,29.3403 28.3404,28.9088C27.8865,28.5013 27.3582,28.1783 26.7886,27.9601C26.2525,27.7548 25.6815,27.6428 25.1077,27.6305C24.354,27.6143 23.5992,27.7707 22.9141,28.0852C22.229,28.3997 21.6183,28.8701 21.1393,29.4522C20.843,29.8122 20.5975,30.2138 20.4122,30.6416C20.2268,31.0695 20.1017,31.5232 20.0417,31.9856C20.0186,32.1637 20.007,32.3423 20.0012,32.5218C19.9865,33.8956 19.9817,35.2697 19.9871,36.6437L18.4376,36.6437C17.0752,36.6437 15.9708,35.5392 15.9708,34.1769C15.9708,32.3062 15.9708,29.6114 15.9708,26.9523C15.9708,24.5579 16.9219,22.2616 18.615,20.5685C19.9154,19.2681 21.5717,18.4054 23.3549,18.0751C23.2258,18.0266 23.0988,17.9723 22.9745,17.9124C22.0952,17.4887 21.3598,16.7878 20.8939,15.9301C20.7758,15.7127 20.6752,15.4859 20.5931,15.2525L14.4565,15.2525C14.3672,15.2489 14.3444,15.2507 14.256,15.2364C14.1234,15.2148 13.9945,15.1718 13.8756,15.1094C13.5458,14.9363 13.3062,14.6174 13.2317,14.2526C13.2049,14.121 13.1994,13.9852 13.2156,13.8519C13.2318,13.7186 13.2696,13.588 13.3272,13.4667C13.3847,13.3453 13.4619,13.2335 13.555,13.1366C13.7181,12.9668 13.9287,12.8452 14.1573,12.7889C14.2567,12.7644 14.3546,12.7566 14.4565,12.7525L20.4266,12.7525C20.4959,12.4182 20.6019,12.0916 20.7426,11.7804C20.9744,11.2677 21.2996,10.7982 21.6975,10.4004C22.0953,10.0026 22.5647,9.67734 23.0774,9.44557C23.6434,9.18972 24.2593,9.04962 24.8802,9.03391C25.505,9.01811 26.1313,9.1275 26.7129,9.3568C27.2376,9.56369 27.7234,9.86666 28.1408,10.246C28.5563,10.6237 28.903,11.0761 29.159,11.5759C29.3492,11.9473 29.489,12.3441 29.5736,12.7525L35.5437,12.7525C35.6456,12.7566 35.7434,12.7644 35.8429,12.7889C36.0714,12.8452 36.2821,12.9668 36.4452,13.1366C36.5382,13.2335 36.6154,13.3453 36.673,13.4667C36.7306,13.588 36.7684,13.7186 36.7846,13.8519C36.8295,14.2215 36.7032,14.5999 36.4452,14.8684C36.3522,14.9653 36.2435,15.047 36.1246,15.1094C36.0057,15.1718 35.8768,15.2148 35.7442,15.2364C35.6558,15.2507 35.633,15.2489 35.5437,15.2525L29.4071,15.2525C29.3626,15.379 29.3128,15.5035 29.2575,15.6257C28.8397,16.5499 28.1185,17.325 27.2272,17.8092C27.0396,17.9111 26.8449,18 26.6452,18.0751ZM25.0001,15.8734C25.3263,15.8693 25.6456,15.8021 25.9404,15.66C26.1762,15.5464 26.3907,15.3897 26.5713,15.2003C26.752,15.0108 26.8984,14.7887 27.0004,14.5475C27.084,14.3499 27.1376,14.1399 27.1592,13.9264C27.1852,13.6702 27.1664,13.4092 27.1022,13.1596C26.9443,12.5458 26.511,12.0209 25.9404,11.746C25.682,11.6215 25.3993,11.5499 25.1128,11.5354C24.8215,11.5207 24.5279,11.5636 24.2538,11.6639C24.0075,11.7541 23.7783,11.8898 23.5801,12.0615C23.3824,12.2327 23.2157,12.4395 23.0909,12.6693C22.9897,12.8555 22.9163,13.0566 22.8738,13.2642C22.8293,13.4816 22.8185,13.7058 22.8409,13.9265C22.9091,14.5977 23.2994,15.2099 23.8756,15.56C24.1509,15.7273 24.4572,15.8256 24.7766,15.8622C24.8512,15.8688 24.9253,15.8725 25.0001,15.8734Z" style="fill:black;"/>
    </g>
</svg>
