<?xml version="1.0" standalone="no"?>
<!DOCTYPE svg PUBLIC "-//W3C//DTD SVG 1.1//EN" "http://www.w3.org/Graphics/SVG/1.1/DTD/svg11.dtd">
<svg width="100%" height="100%" viewBox="0 0 50 50" version="1.1" xmlns="http://www.w3.org/2000/svg" xmlns:xlink="http://www.w3.org/1999/xlink" xml:space="preserve" style="fill-rule:evenodd;clip-rule:evenodd;stroke-linejoin:round;stroke-miterlimit:1.41421;">
    <g id="Layer1">
        <path d="M20.9179,42.7646C20.8724,42.7638 20.8267,42.7655 20.7813,42.7622C20.5994,42.7491 20.4209,42.6958 20.2616,42.6068C20.1553,42.5475 20.1341,42.5242 20.0394,42.4486L5.16642,29.193C5.08124,29.1083 5.05594,29.0901 4.98526,28.9924C4.85275,28.8092 4.77166,28.5906 4.75257,28.3653C4.74114,28.2303 4.75182,28.0937 4.78408,27.9621C4.87077,27.6086 5.11349,27.3046 5.43906,27.1418C5.56022,27.0812 5.69115,27.0405 5.82531,27.0218C5.95948,27.0031 6.09653,27.0063 6.22965,27.0314C6.40724,27.0649 6.57691,27.1372 6.72403,27.2422C6.76076,27.2684 6.79454,27.2985 6.8298,27.3266L20.9843,39.942L36.0726,29.9651L36.1746,29.9044C36.2698,29.8594 36.2925,29.8445 36.3935,29.8134C36.5069,29.7783 36.6253,29.7596 36.744,29.7579C36.7836,29.7573 36.8231,29.7605 36.8626,29.7618C37.0681,29.7784 37.0677,29.7784 37.273,29.7928C37.6479,29.8151 38.0229,29.8301 38.3985,29.8288C38.7303,29.8277 39.0621,29.8152 39.3928,29.7882C39.636,29.7684 39.8786,29.7405 40.1197,29.7027C40.3323,29.6693 40.5437,29.628 40.7527,29.5768C40.9003,29.5406 41.0466,29.4994 41.1909,29.4521C41.3186,29.4102 41.4447,29.3635 41.5683,29.3108C41.6506,29.2757 41.7319,29.2379 41.8115,29.1971C41.8829,29.1604 41.953,29.1213 42.0214,29.0792C42.305,28.9045 42.585,28.6673 42.7039,28.346C42.7336,28.2657 42.7501,28.1829 42.7596,28.098L42.782,27.9645C42.8145,27.8489 42.8181,27.8179 42.8691,27.7086C42.9647,27.5037 43.1162,27.3266 43.3038,27.2003C43.4161,27.1246 43.5407,27.0675 43.6714,27.0317C44.1133,26.9105 44.5981,27.0468 44.9122,27.3805C45.005,27.4791 45.0816,27.5929 45.138,27.716C45.2134,27.8802 45.2525,28.0605 45.2519,28.2412C45.2514,28.371 45.231,28.5026 45.2079,28.6301C45.176,28.8065 45.1304,28.9804 45.0715,29.1498C45.005,29.3411 44.9215,29.5265 44.8229,29.7034C44.7458,29.8417 44.6595,29.9747 44.5652,30.1018C43.9629,30.9137 43.0604,31.4467 42.1191,31.7771C41.7065,31.9219 41.2817,32.0308 40.8524,32.1126C40.311,32.2158 39.762,32.2762 39.2119,32.3061C38.5116,32.3441 37.8112,32.3292 37.1114,32.2876L37.0946,32.2864L21.5605,42.5581L21.4426,42.6272C21.401,42.6457 21.3604,42.6666 21.3179,42.6829C21.2042,42.7264 21.1727,42.7278 21.0539,42.752C21.0086,42.7562 20.9632,42.7604 20.9179,42.7646ZM20.9179,35.5541C20.8724,35.5534 20.8267,35.5551 20.7813,35.5518C20.5994,35.5387 20.4209,35.4853 20.2616,35.3964C20.1553,35.337 20.1341,35.3138 20.0394,35.2382L5.16642,21.9825C5.13495,21.9513 5.10177,21.9217 5.072,21.8889C4.98262,21.7903 4.9092,21.6774 4.85529,21.5558C4.67304,21.1445 4.72963,20.6546 5.00083,20.2957C5.08107,20.1896 5.17828,20.0964 5.28778,20.0208C5.32425,19.9956 5.3633,19.9744 5.40106,19.9512L21.0841,11.4248C21.076,11.341 21.0723,11.2569 21.0688,11.1728C21.0669,11.0904 21.0665,11.0083 21.0678,10.9259C21.0811,10.5444 21.1392,10.1675 21.2645,9.80596C21.3532,9.55005 21.4728,9.30504 21.6211,9.07839C21.7245,8.92038 21.8417,8.77144 21.9704,8.6333C22.0802,8.51544 22.1985,8.40548 22.3235,8.30388C23.1991,7.5922 24.3494,7.32407 25.4535,7.25475C25.6728,7.24099 25.8925,7.23495 26.1122,7.23543C26.3771,7.23602 26.6419,7.24598 26.9061,7.26358C27.2591,7.28708 27.6111,7.3242 27.9615,7.37191C28.449,7.43827 28.9355,7.52034 29.4141,7.63489C30.1013,7.79934 30.7737,8.02287 31.4317,8.27935C32.1452,8.55747 32.8429,8.87565 33.5268,9.21981C34.4556,9.68717 35.3599,10.203 36.2417,10.7536C37.1313,11.309 37.9987,11.9004 38.841,12.5252C39.8892,13.3027 40.903,14.1314 41.8504,15.0297C42.5781,15.7195 43.2781,16.4525 43.8645,17.2681C44.1127,17.6132 44.3407,17.9754 44.5211,18.3609C44.6444,18.6242 44.742,18.9 44.8256,19.1783C44.9916,19.7312 45.0901,20.3082 45.0755,20.8866C45.0653,21.2878 44.9999,21.6879 44.8711,22.0683C44.7777,22.3442 44.6514,22.6087 44.495,22.8545C44.3842,23.0288 44.2584,23.1935 44.1202,23.3469C43.2953,24.2624 42.0894,24.7158 40.9037,24.9339C40.7208,24.9675 40.537,24.9958 40.3526,25.0197C40.0788,25.055 39.8038,25.0804 39.5283,25.0978C39.1883,25.1192 38.8476,25.1284 38.507,25.1281C38.0389,25.1276 37.5714,25.1077 37.1044,25.0774L37.0937,25.0766L21.5605,35.3477L21.4426,35.4167C21.401,35.4353 21.3604,35.4562 21.3179,35.4724C21.2042,35.516 21.1727,35.5173 21.0539,35.5416C21.0086,35.5458 20.9632,35.55 20.9179,35.5541ZM20.9843,32.7316L36.0726,22.7547L36.175,22.6938C36.2109,22.6768 36.246,22.6582 36.2826,22.6429C36.3926,22.5972 36.5091,22.5674 36.6276,22.5546C36.733,22.5432 36.7598,22.5479 36.8654,22.5516C37.0885,22.5701 37.3117,22.5861 37.5352,22.5993C37.8977,22.6183 38.2604,22.6301 38.6234,22.6277C38.9061,22.6259 39.1888,22.6163 39.4708,22.596C39.6584,22.5825 39.8457,22.5643 40.0322,22.5402C40.1989,22.5187 40.3651,22.4924 40.5301,22.4602C40.6759,22.4316 40.8209,22.3983 40.9643,22.3591C41.0699,22.3302 41.1746,22.298 41.2779,22.2618C41.352,22.2358 41.4254,22.2077 41.4977,22.1773C41.8689,22.0208 42.2509,21.7894 42.4393,21.4181C42.4728,21.3522 42.4996,21.2829 42.5201,21.2118C42.5708,21.0353 42.5831,20.8493 42.5742,20.6665C42.5594,20.3668 42.4896,20.071 42.3964,19.7867C42.3557,19.6627 42.3121,19.5389 42.2566,19.4205C42.1544,19.2023 42.0242,18.9974 41.8863,18.8003C41.5098,18.2623 41.0644,17.7727 40.6034,17.3066C39.8254,16.5199 38.9836,15.7938 38.112,15.1131C37.0866,14.3124 36.0214,13.5633 34.9177,12.8742C33.971,12.2831 32.9965,11.7338 31.9904,11.2499C31.1552,10.8483 30.2956,10.4874 29.4069,10.2215C29.0106,10.103 28.6094,10.0094 28.2019,9.93874C27.889,9.88449 27.5745,9.83872 27.2587,9.80412C26.9784,9.77339 26.6969,9.75146 26.4151,9.74143C26.2156,9.73434 26.0158,9.73322 25.8163,9.73997C25.6822,9.7445 25.5481,9.75261 25.4144,9.76512C25.294,9.77639 25.174,9.79125 25.0547,9.8106C24.9486,9.82779 24.8432,9.84854 24.7388,9.87379C24.6618,9.89242 24.5853,9.91352 24.5098,9.93762C24.4558,9.95487 24.4023,9.97369 24.3495,9.99433C24.0667,10.1048 23.7744,10.2758 23.6493,10.5667C23.5923,10.6992 23.5707,10.8448 23.5671,10.9882C23.5606,11.2511 23.6129,11.5111 23.6815,11.7637L23.7088,11.8893C23.7136,11.9319 23.7205,11.9743 23.723,12.0171C23.7281,12.1028 23.7244,12.1888 23.7118,12.2738C23.6678,12.5721 23.5141,12.8491 23.2842,13.0443C23.1968,13.1184 23.1696,13.1299 23.0723,13.1895L8.15655,21.2987C12.4325,25.1096 16.7084,28.9206 20.9843,32.7316ZM23.4726,24.582C24.1915,24.582 24.7742,25.0025 24.7742,25.5213C24.7742,26.04 24.1915,26.4606 23.4726,26.4606C22.7537,26.4606 22.171,26.04 22.171,25.5213C22.171,25.0025 22.7537,24.582 23.4726,24.582ZM15.721,20.1096C16.4399,20.1096 17.0226,20.5301 17.0226,21.0489C17.0226,21.5676 16.4399,21.9882 15.721,21.9882C15.0021,21.9882 14.4194,21.5676 14.4194,21.0489C14.4194,20.5301 15.0021,20.1096 15.721,20.1096ZM25.0172,18.446C25.7361,18.446 26.3188,18.8665 26.3188,19.3853C26.3188,19.904 25.7361,20.3246 25.0172,20.3246C24.2983,20.3246 23.7156,19.904 23.7156,19.3853C23.7156,18.8665 24.2983,18.446 25.0172,18.446ZM32.8128,17.0414C33.5317,17.0414 34.1144,17.4619 34.1144,17.9807C34.1144,18.4994 33.5317,18.92 32.8128,18.92C32.0939,18.92 31.5112,18.4994 31.5112,17.9807C31.5112,17.4619 32.0939,17.0414 32.8128,17.0414ZM26.5682,13.8768C27.2871,13.8768 27.8698,14.2973 27.8698,14.8161C27.8698,15.3348 27.2871,15.7554 26.5682,15.7554C25.8493,15.7554 25.2666,15.3348 25.2666,14.8161C25.2666,14.2973 25.8493,13.8768 26.5682,13.8768Z" style="fill:black;"/>
    </g>
</svg>
