<?xml version="1.0" standalone="no"?>
<!DOCTYPE svg PUBLIC "-//W3C//DTD SVG 1.1//EN" "http://www.w3.org/Graphics/SVG/1.1/DTD/svg11.dtd">
<svg width="100%" height="100%" viewBox="0 0 40 40" version="1.1" xmlns="http://www.w3.org/2000/svg" xmlns:xlink="http://www.w3.org/1999/xlink" xml:space="preserve" style="fill-rule:evenodd;clip-rule:evenodd;stroke-linejoin:round;stroke-miterlimit:1.41421;">
    <g id="Layer1">
        <path d="M22.7644,14.5673L22.7644,30.8704C22.761,30.9927 22.7627,31.0236 22.7492,31.1454C22.729,31.328 22.6886,31.5083 22.6289,31.6821C22.3883,32.383 21.835,32.9518 21.141,33.2116C20.9689,33.2761 20.7898,33.3214 20.6078,33.3467C20.4864,33.3635 20.4555,33.3627 20.3333,33.3694C20.2874,33.3694 20.2414,33.3694 20.1955,33.3694C20.0733,33.3627 20.0424,33.3635 19.921,33.3467C19.739,33.3214 19.5599,33.2761 19.3878,33.2116C18.6938,32.9518 18.1405,32.383 17.8998,31.6821C17.8402,31.5083 17.7998,31.328 17.7796,31.1454C17.7661,31.0236 17.7678,30.9927 17.7644,30.8704L17.7644,14.1398L12.7581,18.1728L12.6541,18.2522C12.5091,18.3513 12.3618,18.4412 12.2008,18.5124C12.0412,18.583 11.8741,18.6368 11.7033,18.6726C11.5894,18.6965 11.5601,18.698 11.4448,18.7129C11.3142,18.7228 11.3147,18.7228 11.1834,18.7259C11.0518,18.7222 10.9226,18.7151 10.7924,18.6942C10.5339,18.6525 10.2821,18.57 10.0491,18.4506C9.8161,18.3311 9.6022,18.1749 9.4175,17.9892C9.2636,17.8345 9.13014,17.6597 9.02152,17.4704C8.64907,16.8215 8.58818,16.0219 8.85809,15.3241C8.96832,15.0391 9.13111,14.775 9.33615,14.5484C9.42464,14.4506 9.52109,14.3643 9.6214,14.2791L18.4307,7.18243C18.5228,7.11213 18.5446,7.09264 18.642,7.02969C18.7881,6.93529 18.9439,6.85621 19.1064,6.79411C19.719,6.5599 20.4127,6.57799 21.0124,6.84384C21.2131,6.93282 21.3935,7.04959 21.5675,7.18243L30.3768,14.2791C30.4771,14.3643 30.5736,14.4506 30.662,14.5484C30.8378,14.7426 30.9826,14.9643 31.0897,15.2033C31.2147,15.4821 31.2879,15.7836 31.3047,16.0888C31.3214,16.3939 31.2817,16.7016 31.188,16.9924C31.1077,17.2417 30.9881,17.478 30.8347,17.6903C30.4228,18.2602 29.7752,18.6363 29.0761,18.7116C28.8591,18.7349 28.6392,18.7297 28.4236,18.6962C28.1217,18.6491 27.829,18.5463 27.5639,18.3942C27.4496,18.3285 27.3447,18.2527 27.2401,18.1728L22.7644,14.5673Z" style="fill:black;"/>
    </g>
</svg>
