<?xml version="1.0" standalone="no"?>
<!DOCTYPE svg PUBLIC "-//W3C//DTD SVG 1.1//EN" "http://www.w3.org/Graphics/SVG/1.1/DTD/svg11.dtd">
<svg width="100%" height="100%" viewBox="0 0 50 50" version="1.1" xmlns="http://www.w3.org/2000/svg" xmlns:xlink="http://www.w3.org/1999/xlink" xml:space="preserve" style="fill-rule:evenodd;clip-rule:evenodd;stroke-linejoin:round;stroke-miterlimit:1.41421;">
    <g id="Layer1">
        <path d="M24.9995,30.4297C26.9482,30.4297 28.5279,32.0094 28.5279,33.958C28.5279,35.9067 26.9482,37.4864 24.9995,37.4864C23.0509,37.4864 21.4711,35.9067 21.4711,33.958C21.4711,32.0094 23.0509,30.4297 24.9995,30.4297ZM17.3267,29.6879C17.2034,29.6866 17.082,29.6823 16.9596,29.6659C16.6757,29.6278 16.3988,29.5405 16.1443,29.4089C15.9262,29.2962 15.725,29.1512 15.5491,28.98C15.3731,28.8088 15.2227,28.6117 15.104,28.3968C14.7857,27.8204 14.7079,27.128 14.8904,26.4953C14.9697,26.2201 15.0967,25.959 15.2642,25.7266C15.3746,25.5733 15.5042,25.4339 15.6317,25.2948C15.8593,25.0464 16.0966,24.8067 16.3427,24.5766C17.5723,23.4272 19.0261,22.5224 20.6052,21.9387C22.3978,21.276 24.3365,21.0339 26.238,21.2171C27.4963,21.3383 28.7354,21.6475 29.9019,22.135C31.1944,22.6751 32.3942,23.4327 33.4378,24.3672C33.7286,24.6277 34.0074,24.9018 34.2728,25.1882C34.4376,25.3661 34.607,25.5457 34.7474,25.7441C34.9603,26.0449 35.1051,26.3924 35.1689,26.7553C35.2256,27.0778 35.2181,27.4109 35.1471,27.7305C35.0938,27.9702 35.0051,28.2017 34.8846,28.4156C34.6023,28.9165 34.1475,29.3105 33.6115,29.5186C33.3827,29.6075 33.1408,29.6624 32.896,29.681C32.6104,29.7027 32.3214,29.6748 32.0452,29.5991C31.7294,29.5124 31.4315,29.3633 31.1729,29.1624C31.0754,29.0866 30.9872,29.003 30.8998,28.916C30.8006,28.807 30.7045,28.6953 30.605,28.5865C30.4209,28.3904 30.2294,28.2022 30.0266,28.0254C29.5444,27.605 29.0088,27.2462 28.4365,26.9604C27.8536,26.6692 27.2332,26.4542 26.5953,26.3212C25.0174,25.9921 23.3411,26.1604 21.869,26.8206C21.1559,27.1404 20.4944,27.5716 19.9099,28.0902C19.646,28.3244 19.4009,28.5769 19.1677,28.8415L19.0843,28.9315C18.9962,29.0178 18.9073,29.1006 18.8091,29.1756C18.5814,29.3493 18.3238,29.4834 18.0509,29.5703C17.8938,29.6203 17.7346,29.6501 17.5716,29.6725C17.4493,29.6832 17.4498,29.6832 17.3267,29.6879ZM10.7312,23.9679C10.583,23.96 10.5454,23.9617 10.3985,23.9389C10.1232,23.8963 9.85533,23.8074 9.60921,23.6768C9.41236,23.5724 9.22964,23.4416 9.06737,23.2888C8.9051,23.1361 8.76344,22.9617 8.64728,22.7715C8.29665,22.1974 8.19198,21.4918 8.36088,20.8407C8.43083,20.571 8.54613,20.3134 8.70067,20.0816C8.78313,19.9579 8.8098,19.9313 8.90407,19.8167C9.02537,19.6789 9.14798,19.5424 9.27194,19.4069C9.81012,18.8265 10.3758,18.273 10.9731,17.7534C12.2766,16.6195 13.7173,15.6438 15.2549,14.8558C16.9468,13.9888 18.7545,13.3506 20.6157,12.9633C23.4496,12.3735 26.4037,12.3638 29.2415,12.9342C31.1988,13.3277 33.0987,13.9983 34.8693,14.9205C36.4426,15.7399 37.9124,16.7565 39.2355,17.9381C39.8608,18.4965 40.4503,19.0923 41.0081,19.7179L41.095,19.8167C41.1893,19.9313 41.2159,19.9579 41.2984,20.0816C41.4529,20.3134 41.5682,20.571 41.6382,20.8407C41.7222,21.1644 41.7403,21.5044 41.6912,21.8352C41.6585,22.0556 41.5962,22.2715 41.5064,22.4755C41.2584,23.039 40.8017,23.4986 40.2397,23.7502C40.0363,23.8412 39.8208,23.9049 39.6006,23.9389C39.3253,23.9815 39.0431,23.9777 38.769,23.9277C38.44,23.8676 38.124,23.7409 37.8446,23.5571C37.7033,23.4642 37.5795,23.3564 37.4561,23.2416C37.2691,23.043 37.0902,22.8368 36.9034,22.6379C36.4601,22.1721 35.9932,21.7299 35.4998,21.3173C34.4286,20.4215 33.2431,19.6629 31.9799,19.0676C30.7942,18.5088 29.5411,18.0945 28.2561,17.8362C26.0781,17.3984 23.8093,17.4058 21.6344,17.8584C20.1056,18.1766 18.6244,18.7163 17.2491,19.4558C16.0523,20.0994 14.9369,20.893 13.9352,21.8112C13.4853,22.2237 13.0607,22.6618 12.6575,23.12L12.543,23.2416C12.4343,23.3427 12.4094,23.3709 12.2909,23.4607C12.0244,23.6627 11.7175,23.8102 11.3933,23.8922C11.2294,23.9336 11.0663,23.952 10.8982,23.9656C10.8426,23.9663 10.7869,23.9671 10.7312,23.9679Z" style="fill:black;"/>
    </g>
</svg>
