<?xml version="1.0" standalone="no"?>
<!DOCTYPE svg PUBLIC "-//W3C//DTD SVG 1.1//EN" "http://www.w3.org/Graphics/SVG/1.1/DTD/svg11.dtd">
<svg width="100%" height="100%" viewBox="0 0 69 74" version="1.1" xmlns="http://www.w3.org/2000/svg" xmlns:xlink="http://www.w3.org/1999/xlink" xml:space="preserve" style="fill-rule:evenodd;clip-rule:evenodd;stroke-linejoin:round;stroke-miterlimit:1.41421;">
    <g id="Layer1">
        <path d="M52.5161,74.0448L52.5161,27.5554C51.2191,27.1332 50.4133,26.3652 50.3253,25.092C47.1536,22.9722 44.1556,20.7922 47.1135,16.5438C46.79,15.271 46.0116,14.5839 44.2325,15.1855C43.0759,11.3691 39.0211,10.6269 34.4843,10.396C29.9475,10.6269 25.8926,11.3691 24.736,15.1855C22.9569,14.5839 22.1786,15.271 21.855,16.5438C24.813,20.7922 21.8149,22.9722 18.6433,25.092C18.5552,26.3652 17.7494,27.1332 16.4525,27.5554L16.4525,74.0448L52.5161,74.0448Z" style="fill:rgb(214,103,23);"/>
        <path d="M1.04482,74.5C0.946762,74.489 0.918497,74.4941 0.827878,74.4505C0.691846,74.385 0.590953,74.2585 0.557356,74.1113C0.549051,74.0749 0.548998,74.0371 0.54482,74L0.54482,68.3436C0.548998,68.3065 0.549051,68.2687 0.557356,68.2323C0.590953,68.0851 0.691846,67.9586 0.827878,67.8931C0.918497,67.8495 0.946762,67.8546 1.04482,67.8436L3.01182,67.8436L3.01182,67.3878L3.02436,67.2765C3.03668,67.2413 3.04514,67.2045 3.06134,67.1709C3.12684,67.0348 3.25336,66.9339 3.40056,66.9003C3.43695,66.892 3.47473,66.892 3.51182,66.8878L3.88354,66.8878C3.92537,66.8164 3.96982,66.7469 4.0149,66.6775C4.07775,66.5842 4.14188,66.4919 4.20706,66.4002C4.52953,65.9556 4.8706,65.5249 5.21636,65.0983C5.51944,64.7243 5.82687,64.3538 6.13635,63.9851C6.97904,62.9811 7.83755,61.9905 8.70216,61.0054L8.79547,60.8996L8.77765,38.6761L6.79919,35.9626L6.28402,35.9626L6.17276,35.9501C6.13753,35.9377 6.1007,35.9293 6.06708,35.9131C5.93105,35.8476 5.83015,35.7211 5.79656,35.5739C5.78825,35.5375 5.7882,35.4997 5.78402,35.4626L5.78402,31.6224C5.7882,31.5853 5.78825,31.5475 5.79656,31.5111C5.83015,31.3639 5.93105,31.2374 6.06708,31.1719C6.1577,31.1283 6.18596,31.1334 6.28402,31.1224L7.06702,31.1224L7.06702,27.5106L7.07956,27.3993C7.09188,27.3641 7.10034,27.3273 7.11654,27.2937C7.18204,27.1576 7.30856,27.0567 7.45576,27.0231C7.49215,27.0148 7.52993,27.0148 7.56702,27.0106L8.55757,27.0106C8.52402,26.9599 8.52509,26.9596 8.49006,26.9027C8.44003,26.8155 8.44023,26.8158 8.39302,26.7272C8.24089,26.4195 8.12786,26.0975 8.06699,25.759C7.92893,24.9914 8.05401,24.1735 8.49534,23.5215C8.60571,23.3585 8.73406,23.2078 8.87699,23.0723C9.12635,22.8361 9.41625,22.6535 9.7272,22.5097C9.86453,22.4495 9.86547,22.4526 10.0045,22.3965C10.1838,22.324 10.2147,22.3103 10.3917,22.2358C10.7045,22.1 11.0154,21.9602 11.3159,21.7987C11.5237,21.687 11.7288,21.5662 11.9158,21.4217C12.0186,21.3423 12.1216,21.2543 12.1961,21.1467C12.2185,21.1143 12.2528,21.0656 12.247,21.022C12.2438,21.0032 12.2352,20.986 12.2261,20.9694C12.1421,20.8265 11.9925,20.7268 11.8582,20.637L11.8378,20.6241C11.7303,20.5866 11.6241,20.5456 11.5183,20.5032C11.4217,20.4631 11.3262,20.4212 11.2313,20.377C11.0029,20.2663 10.7813,20.1425 10.577,19.9912C10.2339,19.7372 9.9452,19.4086 9.77895,19.0123C9.71823,18.8676 9.67416,18.7161 9.64675,18.5615C9.60805,18.3434 9.60262,18.1203 9.62288,17.9C9.65756,17.5228 9.76697,17.1597 9.90557,16.8088C9.85105,16.6809 9.79953,16.552 9.74878,16.4226C9.4902,15.7422 9.28323,15.0375 9.22553,14.3088C9.19776,13.9581 9.20503,13.6042 9.25683,13.2559C9.35302,12.6093 9.60739,11.9974 9.98954,11.4676C10.4284,10.8592 11.0137,10.3702 11.644,9.97022C11.7353,9.91228 11.824,9.86256 11.9347,9.85302C12.1356,9.83573 12.3319,9.94487 12.4233,10.1246C12.4715,10.2195 12.4657,10.2498 12.4776,10.3533C12.4768,10.5432 12.4767,10.5428 12.4778,10.7323C12.4825,11.0251 12.4913,11.3176 12.5107,11.6098C12.5281,11.8735 12.5529,12.1367 12.5871,12.3987C12.612,12.5894 12.6418,12.7794 12.6777,12.9683C12.8745,14.0053 13.2621,15.0753 14.081,15.7844C14.2849,15.9609 14.5097,16.1064 14.7483,16.2311L14.8141,16.2635C14.8547,16.1463 14.8985,16.0304 14.9418,15.9141C15.0071,15.7446 15.0069,15.7449 15.0742,15.5758C15.3735,14.8475 15.7167,14.1398 16.1117,13.4584C17.7912,10.5602 20.2746,8.21322 22.9956,6.29885C23.3967,6.01669 23.8038,5.74322 24.2161,5.47771C24.7609,5.12687 25.3146,4.78994 25.8754,4.46538C26.5846,4.05499 27.3051,3.66436 28.0342,3.29067C28.9306,2.83125 29.84,2.39743 30.7588,1.98477C31.9413,1.45371 33.1399,0.961548 34.347,0.489518L34.4364,0.46384C34.4673,0.460953 34.4981,0.45518 34.5291,0.45518C34.6124,0.45518 34.6321,0.466826 34.7112,0.489517C35.0942,0.639291 35.4766,0.790137 35.858,0.943977C36.9687,1.39605 38.0703,1.86992 39.1569,2.37751C40.0577,2.79834 40.9484,3.24105 41.8251,3.71015C42.4741,4.05743 43.1154,4.41918 43.7469,4.79755C44.2367,5.09108 44.7206,5.39461 45.1972,5.70924C48.0599,7.59912 50.7139,9.92043 52.5677,12.8348C52.8283,13.2446 53.0723,13.6649 53.2977,14.095C53.6635,14.7926 53.975,15.5148 54.2415,16.2558L54.2441,16.2635C54.483,16.1456 54.709,16.0064 54.915,15.8369C55.703,15.1886 56.1093,14.2066 56.3259,13.2333C56.366,13.0534 56.4,12.8722 56.4289,12.6902C56.4605,12.4921 56.4861,12.2931 56.5067,12.0936C56.5351,11.8196 56.5542,11.5448 56.566,11.2696C56.5792,10.9643 56.5819,10.6589 56.5806,10.3533L56.5941,10.2357C56.63,10.1379 56.6314,10.1071 56.7006,10.0262C56.8046,9.90466 56.9642,9.83931 57.1235,9.85302C57.2296,9.86216 57.2522,9.88311 57.3464,9.92767C57.4601,9.99902 57.5722,10.0724 57.6829,10.1483C58.0444,10.4015 58.3862,10.6819 58.6876,11.0051C59.134,11.4839 59.4829,12.051 59.6726,12.6795C59.7522,12.943 59.8039,13.2147 59.8294,13.4888C59.8658,13.8793 59.8488,14.2734 59.7933,14.6612C59.6887,15.3925 59.4497,16.0949 59.1671,16.7748L59.1526,16.8088C59.1889,16.9007 59.1887,16.9003 59.2232,16.993C59.256,17.0872 59.2559,17.0868 59.2867,17.1819C59.3815,17.4987 59.4478,17.8229 59.4469,18.1549C59.4464,18.3441 59.4246,18.5334 59.378,18.7168C59.3461,18.8425 59.3027,18.9651 59.2482,19.0827C59.2055,19.1747 59.156,19.2636 59.1006,19.3485C58.7374,19.9052 58.1426,20.2573 57.5398,20.5032C57.4344,20.5463 57.3278,20.5866 57.2203,20.6241C57.1755,20.6523 57.1324,20.6826 57.0892,20.7133C57.0492,20.7438 57.0368,20.7524 56.9991,20.7844C56.9863,20.7952 56.9738,20.8062 56.9615,20.8175C56.9504,20.8277 56.9395,20.8381 56.9289,20.8487C56.8926,20.8851 56.8575,20.9245 56.832,20.9694C56.8215,20.988 56.8107,21.0094 56.8104,21.0314C56.8109,21.048 56.8169,21.0638 56.8232,21.0791C56.8594,21.159 56.9221,21.2265 56.9845,21.2867C57.1119,21.4096 57.2591,21.5118 57.4087,21.6058C57.8637,21.8917 58.3622,22.1107 58.8572,22.3161C59.0148,22.3814 59.1748,22.4412 59.331,22.5097C59.3921,22.538 59.4523,22.5673 59.5123,22.598C59.8079,22.7568 60.0794,22.9537 60.308,23.2006C60.4398,23.343 60.5563,23.4996 60.6546,23.6669C61.112,24.4455 61.1476,25.4143 60.8625,26.2594C60.7758,26.5162 60.6578,26.7572 60.5158,26.9876L60.5006,27.0106L61.4912,27.0106L61.6024,27.0231C61.6376,27.0355 61.6745,27.0439 61.7081,27.0601C61.8441,27.1256 61.945,27.2521 61.9786,27.3993C61.9869,27.4357 61.987,27.4735 61.9912,27.5106L61.9912,31.1224L62.7742,31.1224L62.8854,31.1349C62.9206,31.1473 62.9575,31.1557 62.9911,31.1719C63.1271,31.2374 63.228,31.3639 63.2616,31.5111C63.2699,31.5475 63.27,31.5853 63.2742,31.6224L63.2742,35.4626C63.27,35.4997 63.2699,35.5375 63.2616,35.5739C63.228,35.7211 63.1271,35.8476 62.9911,35.9131C62.9005,35.9567 62.8722,35.9515 62.7742,35.9626L62.259,35.9626L60.2805,38.6761L60.2627,60.8996C60.6162,61.3005 60.9671,61.7037 61.3177,62.1071C61.6946,62.5436 62.0706,62.9807 62.4444,63.4198C62.9877,64.0613 63.5287,64.7051 64.0539,65.3616C64.2452,65.6007 64.4345,65.8413 64.619,66.0856C64.8044,66.3313 64.9854,66.5804 65.1478,66.842L65.1746,66.8878L65.5464,66.8878L65.6576,66.9003C65.6929,66.9127 65.7297,66.9211 65.7633,66.9373C65.8993,67.0028 66.0002,67.1293 66.0338,67.2765C66.0421,67.3129 66.0422,67.3507 66.0464,67.3878L66.0464,67.8436L68.0134,67.8436L68.1246,67.8561C68.1598,67.8685 68.1967,67.8769 68.2303,67.8931C68.3663,67.9586 68.4672,68.0851 68.5008,68.2323C68.5091,68.2687 68.5092,68.3065 68.5134,68.3436L68.5134,74C68.5092,74.0371 68.5091,74.0749 68.5008,74.1113C68.4841,74.1845 68.4511,74.253 68.4043,74.3117C68.3574,74.3705 68.298,74.4179 68.2303,74.4505C68.0226,74.5505 67.7662,74.492 67.6224,74.3117C67.5756,74.253 67.5426,74.1845 67.5259,74.1113C67.5176,74.0749 67.5175,74.0371 67.5134,74L67.5134,68.8436L65.5464,68.8436L65.4351,68.8311C65.3999,68.8187 65.363,68.8103 65.3294,68.7941C65.1934,68.7286 65.0925,68.6021 65.0589,68.4549C65.0506,68.4185 65.0505,68.3807 65.0464,68.3436L65.0464,67.8878L64.848,67.8878L64.7425,67.8765C64.7089,67.8655 64.6739,67.8579 64.6417,67.8433C64.5445,67.7993 64.4629,67.7241 64.411,67.6309C64.3938,67.6 64.3812,67.5667 64.3696,67.5332C64.3636,67.5159 64.3651,67.4964 64.3579,67.4795C64.3383,67.4378 64.3148,67.3983 64.2915,67.3586C64.0991,67.0487 63.877,66.7569 63.6534,66.4691C63.3168,66.0359 62.9714,65.6098 62.6218,65.187C61.637,63.9959 60.6247,62.8275 59.6052,61.6659L59.3875,61.4191C59.3698,61.3948 59.3497,61.372 59.3342,61.3462C59.303,61.2944 59.2815,61.2374 59.2706,61.1779C59.2653,61.1483 59.2653,61.118 59.2626,61.088L59.2807,38.5126C59.2843,38.4779 59.2844,38.4427 59.2917,38.4085C59.3113,38.3167 59.3303,38.2984 59.3766,38.2185L61.6007,35.168C61.6273,35.1393 61.6507,35.1073 61.6805,35.082C61.7405,35.0309 61.8116,34.9947 61.8882,34.9764C61.9897,34.9521 62.2051,34.9626 62.2742,34.9626L62.2742,32.1224L61.4912,32.1224L61.3799,32.1099C61.3447,32.0975 61.3078,32.0891 61.2742,32.0729C61.1382,32.0074 61.0373,31.8809 61.0037,31.7337C60.9954,31.6973 60.9953,31.6595 60.9912,31.6224L60.9912,28.0106L59.1728,28.0106L59.0577,27.9972C58.9618,27.9624 58.9318,27.9609 58.852,27.8941C58.8223,27.8693 58.7954,27.8409 58.7723,27.81C58.6291,27.6184 58.6442,27.344 58.8074,27.1693C58.8338,27.141 58.8636,27.1157 58.8958,27.0943C58.9684,27.046 59.0573,27.0221 59.1346,26.9816C59.1799,26.9565 59.223,26.929 59.265,26.8989C59.5408,26.6923 59.7363,26.3927 59.8643,26.0761C60.1075,25.4748 60.1281,24.745 59.7923,24.1735C59.7431,24.0897 59.6867,24.0102 59.6238,23.9361C59.4544,23.7363 59.2401,23.579 59.0064,23.4624C58.8343,23.3766 58.6517,23.3124 58.4739,23.2397C58.2752,23.1561 58.2756,23.1563 58.0778,23.0704C57.892,22.9869 57.7069,22.9026 57.5246,22.8118C57.3833,22.7414 57.2436,22.6679 57.1065,22.5898C57.0038,22.5314 56.9026,22.4704 56.8036,22.4058C56.7331,22.3599 56.6637,22.3122 56.596,22.2622C56.2435,22.0022 55.9,21.6564 55.8249,21.2069C55.8158,21.1521 55.8108,21.0965 55.8103,21.0409C55.8095,20.9562 55.819,20.8716 55.8382,20.7892C55.8637,20.6794 55.9064,20.5742 55.962,20.4762C56.0462,20.3275 56.1592,20.1964 56.2847,20.0811C56.3752,19.9979 56.4727,19.9225 56.5738,19.8527C56.6007,19.8342 56.7056,19.764 56.7353,19.7478C56.7683,19.7297 56.8031,19.7151 56.837,19.6988C56.9463,19.6606 57.0545,19.6204 57.162,19.5774C57.2413,19.5444 57.3201,19.5106 57.3977,19.4737C57.8179,19.2741 58.2594,18.9815 58.3976,18.5108C58.4271,18.4106 58.4421,18.3066 58.4458,18.2023C58.452,18.0287 58.4281,17.8548 58.3885,17.6861C58.3336,17.452 58.2472,17.2282 58.1507,17.0085L58.1191,16.9104C58.1097,16.8199 58.1001,16.7958 58.1189,16.7053C58.126,16.6717 58.1398,16.6398 58.1503,16.6071C58.2136,16.4622 58.275,16.3166 58.3343,16.17C58.5435,15.6367 58.7219,15.0883 58.8033,14.5196C58.8435,14.2392 58.8596,13.9547 58.8408,13.6718C58.826,13.4485 58.7893,13.2265 58.7278,13.0113C58.6152,12.6169 58.4189,12.2518 58.1653,11.9303C57.9905,11.7088 57.7905,11.5101 57.5772,11.3259L57.565,11.3156C57.5562,11.4959 57.5562,11.4955 57.5454,11.6759C57.5327,11.8512 57.5328,11.8508 57.518,12.0262C57.4964,12.2478 57.4724,12.4689 57.4405,12.6893C57.2556,13.9682 56.848,15.2811 55.9441,16.2409C55.7965,16.3976 55.6371,16.5431 55.4674,16.6757C55.1118,16.9535 54.7122,17.1712 54.2905,17.3306C54.1949,17.3667 54.0925,17.4118 53.9899,17.4225C53.8378,17.4383 53.6837,17.382 53.5777,17.2717C53.5071,17.1983 53.5033,17.1694 53.4621,17.0784C53.4092,16.914 53.4094,16.9143 53.3546,16.7504C53.0934,15.9976 52.7821,15.2652 52.412,14.5593C52.1995,14.1539 51.9695,13.7577 51.7239,13.3715C49.9829,10.6345 47.4955,8.44776 44.8171,6.65727C44.2976,6.30999 43.7689,5.97653 43.2328,5.65533C42.5523,5.24751 41.8599,4.85945 41.1587,4.4883C40.2928,4.03 39.4134,3.59747 38.5242,3.1862C37.3744,2.65436 36.208,2.16003 35.0317,1.68978L34.8053,1.60004L34.5291,1.49205C34.2106,1.61659 33.8929,1.74286 33.5757,1.87079C32.41,2.34524 31.2546,2.8442 30.1163,3.38131C29.3028,3.76516 28.498,4.16748 27.7049,4.59186C27.008,4.96477 26.3201,5.35471 25.6442,5.76452C25.1119,6.08726 24.5871,6.42234 24.0716,6.7713C21.4122,8.57166 18.95,10.7714 17.2425,13.5176C17.0011,13.9058 16.7755,14.3038 16.5677,14.711C16.1787,15.4728 15.858,16.2644 15.596,17.0784L15.5493,17.1816C15.4887,17.261 15.4785,17.2884 15.3932,17.344C15.2976,17.4063 15.1818,17.4343 15.0683,17.4225C14.9988,17.4152 14.9299,17.3893 14.8646,17.3661C14.7994,17.3429 14.7358,17.319 14.6716,17.2931C14.2523,17.1246 13.8572,16.8966 13.5079,16.6093C13.369,16.495 13.2374,16.3718 13.1141,16.2409C12.2475,15.3207 11.8367,14.0732 11.6417,12.8475C11.6073,12.6314 11.5793,12.4143 11.5568,12.1966C11.5264,11.9035 11.5075,11.6098 11.4932,11.3156C11.4132,11.3831 11.3361,11.4538 11.2604,11.526C11.0117,11.7693 10.7885,12.0375 10.6149,12.3399C10.5232,12.4995 10.4458,12.6672 10.3846,12.8409C10.0641,13.7515 10.2311,14.7441 10.5284,15.6372C10.576,15.7802 10.6274,15.9219 10.6817,16.0624C10.7525,16.2459 10.8291,16.4269 10.9079,16.6071L10.9392,16.7053C10.9485,16.7958 10.9581,16.8199 10.939,16.9104C10.9244,16.9799 10.8969,17.0311 10.8694,17.0954C10.8389,17.1663 10.8326,17.1837 10.8045,17.2549C10.7768,17.3294 10.7508,17.4039 10.7263,17.4794C10.6657,17.6819 10.6185,17.8884 10.6121,18.1004C10.6084,18.2247 10.6189,18.3499 10.6496,18.4706C10.6662,18.5363 10.6889,18.6004 10.7174,18.6619C10.8886,19.0311 11.2518,19.2722 11.6049,19.4468C11.6806,19.4842 11.7576,19.5191 11.8353,19.5521C11.9182,19.5871 12.002,19.6194 12.0863,19.6509L12.152,19.6746L12.2212,19.6988L12.3229,19.7478C12.5303,19.8785 12.7265,20.0219 12.8943,20.2019C13.1463,20.4721 13.2953,20.8355 13.2332,21.2069C13.2177,21.3001 13.1899,21.391 13.1523,21.4775C13.0852,21.6316 12.9882,21.7705 12.876,21.8951C12.6572,22.1381 12.3849,22.3299 12.1068,22.4987C11.7466,22.7173 11.3653,22.9004 10.9803,23.0704C10.7814,23.1583 10.5808,23.2421 10.3792,23.3236C10.2987,23.3561 10.2174,23.3867 10.138,23.4215C10.0811,23.4478 10.0253,23.4756 9.97003,23.5053C9.77949,23.6127 9.60432,23.7436 9.45881,23.9079C9.39405,23.9809 9.33559,24.0596 9.28435,24.1427C8.91711,24.7385 8.94708,25.5171 9.2218,26.1423C9.38682,26.5179 9.66101,26.8942 10.0591,27.0418L10.1624,27.0943C10.2402,27.1603 10.2678,27.1721 10.3195,27.2625C10.4382,27.4701 10.3896,27.7406 10.2062,27.8941C10.1766,27.9189 10.1439,27.9403 10.1094,27.9576C10.0162,28.0043 9.98675,27.9988 9.88539,28.0106L8.06702,28.0106L8.06702,31.6224L8.05448,31.7337C8.04216,31.7689 8.0337,31.8057 8.0175,31.8393C7.95199,31.9754 7.82548,32.0763 7.67828,32.1099C7.64189,32.1182 7.60411,32.1182 7.56702,32.1224L6.78402,32.1224L6.78402,34.9626L7.05342,34.9626C7.09226,34.9672 7.13191,34.9672 7.16994,34.9764C7.24653,34.9947 7.31771,35.0309 7.37767,35.082C7.40744,35.1073 7.43084,35.1393 7.45743,35.168L9.68153,38.2185C9.72783,38.2984 9.74686,38.3167 9.76648,38.4085C9.77377,38.4427 9.77384,38.4779 9.77752,38.5126L9.79562,61.088C9.79292,61.118 9.79293,61.1483 9.78754,61.1779C9.77671,61.2374 9.75518,61.2944 9.72401,61.3462C9.70848,61.372 9.68843,61.3948 9.67064,61.4191C9.40616,61.719 9.14268,62.0198 8.87958,62.3209C7.90333,63.4443 6.93043,64.5715 5.99331,65.7279C5.70979,66.0777 5.42883,66.43 5.15997,66.7913C5.05313,66.9349 4.94784,67.0799 4.84904,67.2291C4.79569,67.3097 4.7414,67.3918 4.70031,67.4796L4.6977,67.4856L4.68858,67.5333L4.64711,67.631C4.59318,67.7074 4.5844,67.7328 4.50791,67.7895C4.45077,67.8319 4.38524,67.8615 4.31571,67.8765C4.23106,67.8948 4.08363,67.8878 4.01182,67.8878L4.01182,68.3436C4.00077,68.4417 4.00594,68.4699 3.9623,68.5605C3.89679,68.6966 3.77028,68.7975 3.62308,68.8311C3.58669,68.8394 3.54891,68.8394 3.51182,68.8436L1.54482,68.8436L1.54482,74L1.53228,74.1113C1.51996,74.1465 1.5115,74.1833 1.4953,74.2169C1.44641,74.3185 1.36329,74.4016 1.26176,74.4505C1.22814,74.4667 1.19131,74.4751 1.15608,74.4875C1.11899,74.4916 1.08191,74.4958 1.04482,74.5ZM4.69798,67.4841C4.70281,67.4696 4.70478,67.4552 4.7076,67.4401L4.70851,67.4291C4.705,67.4475 4.70149,67.4658 4.69798,67.4841ZM64.3602,67.4841C64.3576,67.4704 64.3532,67.4539 64.3557,67.4678C64.3572,67.4732 64.3584,67.4788 64.3602,67.4841Z" style="fill:rgb(214,103,23);fill-rule:nonzero;"/>
    </g>
</svg>
