<?xml version="1.0" standalone="no"?>
<!DOCTYPE svg PUBLIC "-//W3C//DTD SVG 1.1//EN" "http://www.w3.org/Graphics/SVG/1.1/DTD/svg11.dtd">
<svg width="100%" height="100%" viewBox="0 0 230 55" version="1.1" xmlns="http://www.w3.org/2000/svg" xmlns:xlink="http://www.w3.org/1999/xlink" xml:space="preserve" style="fill-rule:evenodd;clip-rule:evenodd;stroke-linejoin:round;stroke-miterlimit:1.41421;">
    <g id="Layer1">
        <g>
            <path d="M41.1782,29.5351C36.9556,28.9431 32.8202,28.6471 28.7723,28.6471C24.2795,28.6471 20.3444,29.7324 16.9669,31.9031C12.9793,34.4684 10.7969,38.0944 10.4196,42.7811C10.2289,45.1491 10.7868,47.0607 12.093,48.5161C13.3993,49.9714 15.1423,50.6991 17.322,50.6991C21.9482,50.6991 26.6316,48.3311 31.3722,43.5951C35.3375,39.6484 38.6062,34.9617 41.1782,29.5351ZM139.002,47.2628C135.699,49.9607 132.255,51.3097 128.67,51.3097C123.586,51.3097 121.185,49.5584 121.467,46.0557C121.519,45.4144 121.596,44.9457 121.7,44.6497L122.212,42.7257L129.045,24.4477L138.833,22.0057L130.546,44.2797L129.903,47.0917C129.768,48.7691 130.475,49.6077 132.024,49.6077C133.573,49.6077 135.322,48.8431 137.272,47.3137L139.06,45.9263C139.188,44.8661 139.524,43.6266 140.067,42.2077L146.65,24.8177L156.354,22.6717L146.096,49.4597L146.245,49.8297L147.245,47.7577C148.115,45.8337 149.841,42.1584 152.422,36.7317C152.99,35.5971 153.598,34.4624 154.245,33.3277C158.702,25.8291 162.975,22.0797 167.066,22.0797C168.377,22.0797 169.424,22.5114 170.209,23.3747C170.993,24.2381 171.326,25.4097 171.207,26.8897L170.909,28.3697L170.575,29.5537L164.737,43.6137C164.2,44.8471 163.899,45.8831 163.831,46.7217C163.656,48.3991 164.403,49.2377 166.071,49.2377C167.501,49.2377 169.205,48.5471 171.183,47.1657L174.15,45.0937L174.614,45.9817C170.44,49.4844 166.387,51.2357 162.455,51.2357C157.689,51.2357 155.475,49.1391 155.812,44.9457C155.916,43.6631 156.263,42.3064 156.855,40.8757L163.861,24.1517L163.456,24.0037C162.582,24.0037 160.68,26.1744 157.748,30.5157C156.891,31.7984 156.12,32.9824 155.437,34.0677C154.702,35.3011 153.354,37.7431 151.392,41.3937L148.038,48.2757C147.466,49.4597 146.896,50.2491 146.328,50.6437C145.76,51.0384 144.94,51.2357 143.867,51.2357C140.739,51.2357 139.117,49.9114 139.002,47.2628ZM50.5899,27.8331L60.5032,4.15308L60.1267,3.85708C58.6143,3.85708 55.7908,7.43375 51.6563,14.5871C48.6069,19.8657 46.2942,24.2811 44.7182,27.8331L50.5899,27.8331ZM66.4002,47.9272C61.5559,51.2551 56.6579,52.9191 51.7064,52.9191C45.9236,52.9191 43.2109,50.6991 43.5684,46.2591C43.6836,44.8284 44.1542,43.1264 44.9803,41.1531L49.6832,29.9791L43.8353,29.6831C35.3979,44.9764 25.4186,52.6231 13.8976,52.6231C10.3834,52.6231 7.52542,51.9324 5.32352,50.5511C2.57114,48.8244 1.33992,46.1604 1.62986,42.5591C2.09851,36.7377 5.64284,32.4951 12.2628,29.8311C17.2743,27.8084 22.7727,26.9204 28.758,27.1671L42.1946,27.6851C45.6738,20.3837 48.5231,15.1051 50.7424,11.8491C55.1812,5.33708 59.4245,2.08108 63.4725,2.08108C65.1183,2.08108 66.4635,2.50042 67.5081,3.33908C68.7631,4.32575 69.3212,5.68242 69.1821,7.40908C69.0352,9.23442 68.327,11.6764 67.0577,14.7351L61.6781,27.6851L64.8808,27.6851C65.4226,27.5864 65.7157,27.5371 65.7601,27.5371L68.186,27.2411L66.2189,30.1271L60.62,30.0531L53.7712,46.3331L53.3494,48.2571C53.2104,49.9837 54.0751,50.8471 55.9434,50.8471C58.7731,50.8471 62.3049,49.3118 66.5389,46.2411L66.7622,44.9271L67.4294,42.5591L80.9173,5.26308L90.7174,2.67308L74.6321,47.8131C74.5725,48.5531 74.7502,49.1821 75.1653,49.7001C75.5803,50.2181 76.1056,50.4771 76.741,50.4771C78.6037,50.4771 81.3048,49.1508 84.8443,46.4981L85.1114,44.9271L85.7786,42.5591L99.2664,5.26308L109.067,2.67308L92.9812,47.8131C92.9217,48.5531 93.0994,49.1821 93.5144,49.7001C93.9295,50.2181 94.4547,50.4771 95.0902,50.4771C96.9569,50.4771 99.6656,49.1451 103.216,46.4811L103.681,47.3691C99.5504,50.8224 95.3206,52.5491 90.9914,52.5491C86.9238,52.5491 84.8421,50.9815 84.7465,47.8463C80.8019,50.9815 76.7671,52.5491 72.6423,52.5491C68.6097,52.5491 66.529,51.0085 66.4002,47.9272ZM228.408,6.76172L212.52,49.4597L202.624,51.7537L215.344,18.0837L204.281,25.2617L205.263,21.9317L228.408,6.76172ZM136.593,9.54638C139.094,9.54638 141.121,11.5737 141.121,14.0745C141.121,16.5752 139.094,18.6025 136.593,18.6025C134.092,18.6025 132.065,16.5752 132.065,14.0745C132.065,11.5737 134.092,9.54638 136.593,9.54638Z" style="fill:rgb(138,66,15);"/>
            <path d="M17.322,50.6991C16.4356,50.6944 15.5501,50.5781 14.7119,50.2812C14.2411,50.1145 13.79,49.8931 13.3719,49.6198C12.5722,49.0971 11.8876,48.3879 11.3897,47.5728C11.153,47.1852 10.9588,46.7723 10.8083,46.3439C10.4572,45.3442 10.3483,44.2744 10.3926,43.2197C10.4169,42.641 10.4821,42.0628 10.5733,41.4909C10.7198,40.5724 10.9477,39.6664 11.2672,38.7926C11.6208,37.8255 12.0869,36.9004 12.6582,36.0437C13.3336,35.0308 14.1529,34.1186 15.0708,33.3198C15.9031,32.5956 16.8139,31.9657 17.7687,31.4142C18.9625,30.7247 20.2287,30.1628 21.5393,29.7353C22.8931,29.2938 24.2918,28.9959 25.7052,28.8259C26.446,28.7369 27.1908,28.6827 27.9364,28.6598C28.5951,28.6396 29.2543,28.6459 29.9131,28.6549C30.8067,28.6671 31.7001,28.6935 32.5928,28.7338C34.5394,28.8216 36.4829,28.975 38.4196,29.1891C39.3409,29.2909 40.2601,29.4083 41.1782,29.5351C41.0574,29.7885 40.9353,30.0412 40.812,30.2933C40.0375,31.8566 39.1987,33.3864 38.2789,34.869C36.734,37.3591 34.973,39.7155 33.0037,41.8862C32.4745,42.4695 31.9303,43.0393 31.3722,43.5951C30.5231,44.4405 29.6404,45.252 28.7116,46.0093C28.3501,46.3041 27.9819,46.5908 27.6066,46.8678C25.2647,48.5971 22.6021,49.9829 19.7124,50.4892C18.994,50.6151 18.2679,50.6828 17.5389,50.6973C17.4304,50.6986 17.4308,50.6986 17.322,50.6991ZM128.67,51.3097C129.005,51.3078 129.34,51.2979 129.674,51.2742C130.342,51.2267 131.007,51.1313 131.661,50.9896C133.372,50.6194 135,49.9319 136.498,49.0333C137.377,48.5065 138.207,47.907 139.002,47.2628C139.009,47.3855 139.009,47.385 139.018,47.5072C139.061,47.9861 139.15,48.4595 139.331,48.9069C139.431,49.1528 139.557,49.3883 139.71,49.6052C139.822,49.7637 139.948,49.9119 140.087,50.0475C140.866,50.8097 141.969,51.1085 143.027,51.2008C143.211,51.2168 143.395,51.2268 143.579,51.2318C144.097,51.246 144.621,51.2257 145.13,51.1224C145.467,51.054 145.8,50.9482 146.103,50.7825C146.493,50.5692 146.806,50.2484 147.074,49.8991C147.434,49.4315 147.722,48.9124 147.984,48.3856L148.038,48.2757L151.392,41.3937C151.943,40.3697 152.496,39.3467 153.051,38.3253C153.786,36.981 154.521,35.6371 155.292,34.3131L155.437,34.0677C156.443,32.4765 157.47,30.8973 158.546,29.352C159.299,28.2701 160.072,27.1988 160.909,26.1802C161.195,25.8318 161.49,25.4896 161.801,25.1627C162.035,24.9167 162.278,24.6774 162.542,24.4632C162.693,24.3401 162.853,24.2235 163.026,24.1325C163.154,24.0656 163.29,24.0123 163.435,24.0041L163.456,24.0037L163.861,24.1517C161.507,29.7709 159.106,35.3707 156.8,41.0096C156.341,42.1579 155.989,43.3517 155.848,44.583C155.759,45.3579 155.744,46.1496 155.864,46.9221C155.943,47.4303 156.083,47.9309 156.304,48.3963C156.437,48.6772 156.6,48.9442 156.791,49.1899C156.921,49.3583 157.065,49.5166 157.22,49.6632C158.085,50.4828 159.251,50.8911 160.408,51.0822C160.599,51.1137 160.79,51.1395 160.983,51.1605C161.22,51.1863 161.458,51.2047 161.696,51.2169C162.01,51.233 162.325,51.2388 162.639,51.2344C163.197,51.2267 163.754,51.1836 164.307,51.1075C167.2,50.7086 169.893,49.4117 172.279,47.7673C172.607,47.5411 172.93,47.3077 173.249,47.0682C173.714,46.7184 174.167,46.3541 174.614,45.9817L174.15,45.0937C173.099,45.8272 172.052,46.5653 170.998,47.2932C170.817,47.4156 170.817,47.4154 170.634,47.536C170.234,47.7922 169.829,48.0375 169.409,48.2584C169.113,48.414 168.81,48.5584 168.501,48.6868C168.245,48.7934 167.984,48.8891 167.719,48.9701C167.522,49.0301 167.323,49.0821 167.122,49.1239C166.956,49.1584 166.788,49.186 166.62,49.2053C166.483,49.2212 166.344,49.2316 166.206,49.2357C166.11,49.2386 166.014,49.2384 165.917,49.2353C165.337,49.2164 164.712,49.083 164.296,48.6474C164.223,48.5709 164.158,48.4867 164.102,48.3968C164.013,48.2545 163.948,48.0988 163.902,47.938C163.831,47.6893 163.806,47.4293 163.806,47.1714C163.806,47.0209 163.817,46.8714 163.831,46.7217C163.86,46.4064 163.911,46.0953 163.984,45.7869C164.159,45.0391 164.433,44.3179 164.737,43.6137L170.575,29.5537C170.946,28.2355 170.936,28.2327 171.207,26.8897C171.216,26.7524 171.216,26.7529 171.224,26.6158C171.243,26.0381 171.205,25.4593 171.046,24.901C170.941,24.529 170.784,24.1718 170.573,23.8472C170.406,23.5892 170.205,23.3537 169.981,23.1433C169.801,22.9745 169.605,22.8227 169.396,22.6918C169.248,22.5988 169.092,22.5165 168.932,22.4452C168.287,22.1581 167.576,22.0624 166.874,22.0825C166.518,22.0926 166.164,22.1312 165.814,22.1957C165.618,22.2318 165.424,22.276 165.232,22.3276C164.968,22.3984 164.708,22.4833 164.453,22.5802C164.152,22.6943 163.858,22.825 163.571,22.9695C162.68,23.4178 161.857,23.9944 161.093,24.6343C160.141,25.4321 159.276,26.331 158.471,27.276C157.468,28.4551 156.555,29.7107 155.701,31.0018C155.197,31.7644 154.708,32.5392 154.245,33.3277C154.04,33.6779 153.846,34.0355 153.65,34.3915C153.265,35.0943 152.892,35.804 152.529,36.519L152.422,36.7317C151.342,39.0055 150.263,41.28 149.192,43.5582C148.536,44.9545 147.883,46.3528 147.245,47.7577L146.245,49.8297L146.096,49.4597L156.354,22.6717L146.65,24.8177C144.406,30.7456 142.102,36.6515 139.919,42.602C139.542,43.6493 139.224,44.7213 139.072,45.8264L139.06,45.9263C138.403,46.4359 137.747,46.946 137.09,47.4549C136.911,47.5904 136.911,47.5902 136.729,47.7237C136.359,47.9885 135.982,48.2428 135.589,48.4736C135.288,48.6503 134.979,48.8142 134.662,48.9603C134.423,49.0705 134.179,49.1706 133.931,49.2577C133.724,49.3302 133.514,49.3936 133.301,49.4459C133.124,49.4893 132.945,49.525 132.765,49.5517C132.641,49.5701 132.516,49.5843 132.391,49.5937C132.293,49.6011 132.195,49.6057 132.097,49.6072C131.545,49.6156 130.948,49.5272 130.513,49.1599C130.448,49.1048 130.387,49.0441 130.332,48.9787C130.253,48.8852 130.186,48.7823 130.13,48.6734C130.043,48.5034 129.985,48.3198 129.947,48.1329C129.878,47.7902 129.878,47.4391 129.903,47.0917L130.546,44.2797L138.833,22.0057L129.045,24.4477L122.212,42.7257L121.7,44.6497C121.679,44.7109 121.661,44.7722 121.644,44.8344C121.626,44.9079 121.61,44.9814 121.594,45.0556C121.539,45.3473 121.503,45.6418 121.477,45.9375C121.444,46.314 121.433,46.6917 121.464,47.0687C121.499,47.4863 121.584,47.9007 121.734,48.2925C121.828,48.5376 121.948,48.773 122.091,48.9928C122.187,49.1387 122.293,49.2776 122.408,49.4084C123.185,50.2902 124.326,50.7499 125.448,51.0016C125.662,51.0494 125.877,51.0902 126.093,51.125C126.357,51.1676 126.623,51.2012 126.889,51.2276C127.25,51.2634 127.611,51.2837 127.973,51.2982C128.205,51.3047 128.437,51.3085 128.67,51.3097ZM17.3227,49.4491C17.9509,49.4465 18.5774,49.4007 19.1987,49.3066C21.9225,48.8941 24.4402,47.6162 26.6536,46.0161C27.0122,45.7569 27.364,45.4883 27.7096,45.2118C28.6841,44.4323 29.6059,43.5897 30.49,42.7095C31.0332,42.1686 31.5628,41.6141 32.0779,41.0463C33.642,39.3222 35.0721,37.4777 36.3618,35.54C37.4311,33.9336 38.4024,32.264 39.2848,30.548C38.9508,30.5076 38.6166,30.4692 38.2823,30.4315C35.9953,30.1835 33.7012,30.0118 31.4017,29.9389C30.775,29.9191 30.148,29.9062 29.521,29.9005C29.0716,29.8964 28.6221,29.8937 28.1728,29.9039C27.5246,29.9188 26.877,29.9582 26.232,30.0248C24.7712,30.1758 23.3238,30.4681 21.9269,30.9237C20.5315,31.3789 19.1906,31.9968 17.941,32.7669C17.1118,33.2779 16.3241,33.8572 15.6071,34.5173C14.9534,35.119 14.3602,35.7869 13.8502,36.5148C13.3517,37.2262 12.9344,37.9933 12.6055,38.7973C12.226,39.7247 11.9654,40.6987 11.8077,41.6878C11.7093,42.3049 11.6413,42.931 11.6338,43.5565C11.6237,44.4088 11.7335,45.2706 12.0392,46.07C12.4199,47.0656 13.1129,47.9387 13.9974,48.5347C14.3286,48.7579 14.6867,48.9399 15.0613,49.0783C15.7289,49.325 16.4361,49.4285 17.1453,49.4472C17.2343,49.4486 17.234,49.4486 17.3227,49.4491ZM128.67,52.5597C128.264,52.5575 127.859,52.5493 127.454,52.5255C127.113,52.5055 126.772,52.476 126.433,52.4349C126.183,52.4045 125.933,52.3678 125.685,52.3236C124.295,52.0759 122.893,51.584 121.839,50.6122C121.688,50.473 121.546,50.3249 121.413,50.1685C121.223,49.9457 121.054,49.706 120.907,49.453C120.701,49.0972 120.541,48.7156 120.427,48.3207C120.258,47.7384 120.19,47.1307 120.195,46.5255C120.198,46.2097 120.223,45.8946 120.256,45.5807C120.301,45.1585 120.366,44.7388 120.488,44.3315L120.501,44.2922L121.004,42.4041L121.041,42.288L127.874,24.01L128.013,23.742C128.08,23.6664 128.138,23.5822 128.213,23.5152C128.415,23.3343 128.494,23.3299 128.743,23.2349L138.531,20.7929C138.794,20.7602 138.865,20.7271 139.128,20.791C139.226,20.8146 139.321,20.8503 139.41,20.8966C139.771,21.0842 140.022,21.4447 140.073,21.8482C140.108,22.1167 140.067,22.1841 140.005,22.4416L131.747,44.6386L131.143,47.2754C131.138,47.3578 131.137,47.4401 131.137,47.5226C131.14,47.6217 131.145,47.7206 131.16,47.8187C131.168,47.8696 131.179,47.9203 131.192,47.97C131.202,48.0052 131.214,48.04 131.229,48.0735C131.245,48.1116 131.266,48.1488 131.294,48.1799C131.342,48.2328 131.41,48.2636 131.477,48.2861C131.52,48.3009 131.564,48.3123 131.609,48.3214C131.683,48.3365 131.759,48.3457 131.834,48.3511C131.969,48.3609 132.106,48.3593 132.241,48.351C132.901,48.311 133.542,48.1006 134.139,47.8253C134.365,47.7209 134.586,47.6063 134.803,47.4838C135.071,47.3326 135.332,47.1694 135.587,46.9977C135.902,46.7854 136.206,46.5585 136.507,46.3259L137.896,45.2472C137.918,45.1145 137.944,44.9824 137.97,44.8503C138.003,44.6893 138.038,44.5289 138.076,44.3688C138.279,43.5295 138.545,42.7093 138.846,41.9004L138.898,41.7649L145.481,24.3752L145.625,24.1019C145.694,24.0254 145.754,23.9398 145.832,23.8724C146.042,23.6904 146.124,23.6882 146.38,23.5972L156.085,21.4512C156.346,21.4255 156.418,21.3948 156.677,21.4641C156.773,21.4898 156.867,21.5273 156.954,21.575C157.308,21.7685 157.551,22.1301 157.596,22.5308C157.627,22.7976 157.586,22.864 157.522,23.1188L154.912,29.9324C155.102,29.6521 155.102,29.6526 155.295,29.3737C155.47,29.1241 155.646,28.8753 155.824,28.6282C156.677,27.4612 157.582,26.3321 158.581,25.2866C159.281,24.5542 160.026,23.8624 160.828,23.2432C162.077,22.279 163.483,21.4823 165.021,21.0908C165.652,20.9301 166.301,20.8398 166.952,20.8305C167.615,20.8211 168.281,20.9003 168.914,21.1028C169.36,21.2455 169.787,21.4483 170.177,21.7078C170.489,21.9157 170.777,22.1593 171.037,22.4303C171.611,23.0289 172.023,23.7626 172.249,24.5594C172.386,25.0422 172.457,25.5423 172.475,26.0433C172.483,26.2522 172.482,26.4614 172.472,26.6702C172.47,26.7307 172.46,26.9159 172.453,26.9787C172.448,27.0314 172.439,27.0838 172.432,27.1363L172.125,28.663L171.778,29.8928L171.729,30.0331C169.782,34.7224 167.836,39.412 165.888,44.101C165.814,44.2797 165.737,44.4571 165.665,44.6368C165.602,44.799 165.54,44.9618 165.482,45.1259C165.349,45.5096 165.231,45.8987 165.152,46.2974C165.117,46.4761 165.093,46.6555 165.076,46.8368C165.061,46.9929 165.051,47.149 165.06,47.3058C165.066,47.403 165.078,47.5009 165.104,47.5948C165.119,47.6475 165.139,47.7004 165.17,47.7462C165.234,47.8416 165.352,47.8863 165.457,47.9168C165.717,47.9923 166,47.9976 166.269,47.9818C166.728,47.9546 167.18,47.8413 167.613,47.6894C168.259,47.4631 168.871,47.1479 169.457,46.7973C169.803,46.5903 170.138,46.3678 170.47,46.139L173.434,44.0689C173.523,44.0216 173.607,43.9632 173.701,43.927C174.083,43.7802 174.522,43.8324 174.859,44.0645C175.083,44.219 175.106,44.2949 175.257,44.5141L175.722,45.4021C175.811,45.6342 175.856,45.6914 175.864,45.9451C175.872,46.2292 175.781,46.5118 175.609,46.7381C175.499,46.8833 175.354,46.9933 175.215,47.108C175.014,47.274 174.812,47.4377 174.607,47.5991C173.04,48.8369 171.357,49.9424 169.547,50.7951C168.695,51.1969 167.815,51.5415 166.912,51.8123C166.246,52.0118 165.569,52.1711 164.883,52.2843C164.347,52.3729 163.806,52.4332 163.263,52.4633C162.836,52.487 162.408,52.4913 161.98,52.4791C161.713,52.4715 161.446,52.4572 161.179,52.435C159.716,52.3132 158.225,51.9511 157.007,51.0982C156.83,50.9737 156.659,50.8395 156.497,50.6957C156.289,50.5121 156.096,50.3129 155.919,50.1C155.662,49.792 155.441,49.4555 155.258,49.0993C154.983,48.5658 154.794,47.9904 154.68,47.402C154.498,46.4731 154.494,45.5147 154.591,44.5757C154.74,43.1335 155.152,41.736 155.7,40.3976L160.673,28.527C159.386,30.2732 158.191,32.0854 157.018,33.9094L156.752,34.3262C156.669,34.4574 156.585,34.5877 156.504,34.7198C156.344,34.9788 156.195,35.2457 156.044,35.5098C155.763,36.0002 155.487,36.4932 155.213,36.9872C154.533,38.2121 153.865,39.4433 153.199,40.6755L152.853,41.3162L152.505,41.9639C151.352,44.328 150.22,46.702 149.047,49.0556C148.746,49.6467 148.413,50.2256 147.999,50.7459C147.66,51.1723 147.263,51.5553 146.79,51.8304C145.863,52.3689 144.759,52.4989 143.705,52.4847C142.363,52.4665 140.967,52.2214 139.839,51.4532C139.69,51.3518 139.547,51.2419 139.411,51.1238C139.207,50.9472 139.019,50.7523 138.851,50.542C138.596,50.2232 138.394,49.8724 138.225,49.5013L138.195,49.429C138.069,49.5158 137.941,49.6002 137.813,49.6847C137.646,49.7928 137.646,49.7926 137.478,49.899C137.035,50.1734 136.585,50.435 136.123,50.6756C135.123,51.1962 134.075,51.6261 132.993,51.941C132.115,52.1961 131.216,52.3754 130.307,52.4726C129.884,52.5179 129.46,52.5429 129.035,52.5555C128.853,52.5587 128.853,52.5587 128.67,52.5597ZM44.7182,27.8331C46.3021,24.2878 48.123,20.8523 50.0187,17.4653C50.8028,16.0643 51.5982,14.6692 52.4162,13.2877C53.2422,11.8927 54.092,10.5106 54.992,9.16183C55.5492,8.32667 56.1255,7.503 56.7415,6.70986C57.2008,6.11847 57.6816,5.53941 58.2145,5.01234C58.3203,4.90761 58.4285,4.80512 58.5395,4.70584C58.6395,4.61641 58.7419,4.52956 58.8472,4.4465C59.0248,4.30655 59.2113,4.17601 59.4109,4.06927C59.6119,3.96177 59.8266,3.8801 60.0549,3.8597L60.091,3.85774L60.1267,3.85708L60.5032,4.15308L50.5899,27.8331C48.6327,27.8331 46.6754,27.8331 44.7182,27.8331ZM51.7064,52.9191C52.248,52.9162 52.7889,52.8992 53.3292,52.8594C54.3386,52.785 55.3426,52.641 56.3327,52.4316C58.6528,51.941 60.8864,51.0911 62.9852,49.9929C64.1656,49.3753 65.2997,48.6772 66.4002,47.9272C66.4064,48.0455 66.4137,48.1632 66.4243,48.2812C66.472,48.7562 66.5678,49.2259 66.7423,49.6714C66.8512,49.9494 66.9894,50.2159 67.1575,50.4627C67.2785,50.6404 67.4147,50.8077 67.5642,50.9623C68.3586,51.7841 69.4755,52.1933 70.5798,52.3866C70.7926,52.4238 71.0068,52.4535 71.2216,52.4769C71.4501,52.5017 71.6794,52.5194 71.909,52.531C73.574,52.6157 75.2541,52.4204 76.8641,51.9934C77.9716,51.6996 79.0483,51.2949 80.0826,50.8028C81.1921,50.2748 82.2528,49.6471 83.263,48.9485C83.77,48.5979 84.2624,48.2279 84.7465,47.8463C84.7508,47.9666 84.7574,48.0866 84.7668,48.2066C84.8096,48.689 84.9007,49.1669 85.0721,49.6211C85.1856,49.9219 85.3331,50.2101 85.5152,50.4753C85.638,50.6541 85.7763,50.8222 85.9279,50.9773C86.7557,51.8244 87.9246,52.2278 89.07,52.4102C89.2884,52.4449 89.5079,52.4721 89.728,52.4928C89.9623,52.5149 90.1973,52.5298 90.4325,52.5388C92.1128,52.6024 93.802,52.388 95.4206,51.937C96.5852,51.6125 97.7141,51.1661 98.795,50.6256C100.034,50.006 101.21,49.2643 102.322,48.4402C102.786,48.0968 103.237,47.7374 103.681,47.3691L103.216,46.4811C102.999,46.6437 102.78,46.805 102.56,46.965C102.349,47.1173 102.137,47.2682 101.924,47.4176C101.384,47.7927 100.837,48.1574 100.277,48.5015C99.9139,48.7242 99.5461,48.9386 99.172,49.1415C98.8757,49.3022 98.5753,49.4556 98.2703,49.5991C98.0317,49.7112 97.7902,49.8173 97.5454,49.9151C97.3215,50.0047 97.0947,50.0874 96.865,50.161C96.435,50.2987 95.9928,50.4059 95.5431,50.4527C95.2974,50.4783 95.046,50.4912 94.8004,50.4581C94.449,50.4108 94.1196,50.2658 93.8464,50.04C93.6766,49.8997 93.5286,49.7327 93.404,49.5515C93.2662,49.3512 93.1591,49.1307 93.0872,48.8985C92.9782,48.5464 92.9553,48.179 92.9812,47.8131L109.067,2.67308L99.2664,5.26308L85.7786,42.5591C85.2291,44.5093 85.1839,44.5003 84.8443,46.4981C84.6274,46.6601 84.4095,46.8207 84.1905,46.9799C83.6339,47.3811 83.0704,47.7725 82.4938,48.1447C82.0311,48.4433 81.5607,48.7303 81.0803,48.9995C80.7383,49.1912 80.3912,49.3738 80.0379,49.5435C79.7975,49.659 79.5543,49.7685 79.3077,49.8699C79.0819,49.9629 78.8533,50.0491 78.6217,50.1264C78.1581,50.2811 77.6799,50.4022 77.193,50.4528C76.9476,50.4783 76.6966,50.4911 76.4512,50.4581C76.0998,50.4108 75.7705,50.2658 75.4972,50.04C75.3275,49.8997 75.1795,49.7327 75.0548,49.5515C74.9055,49.3343 74.7924,49.0934 74.7207,48.8398C74.6261,48.5052 74.6076,48.1586 74.6321,47.8131L90.7174,2.67308L80.9173,5.26308L67.4294,42.5591C66.9152,44.3842 66.8566,44.3718 66.5389,46.2411C66.3426,46.3827 66.1458,46.5232 65.9481,46.6628C65.2064,47.1807 64.4526,47.6805 63.6776,48.1472C63.0411,48.5303 62.3915,48.8923 61.7264,49.2233C61.234,49.4684 60.7329,49.6965 60.2225,49.9014C59.8065,50.0684 59.3842,50.2199 58.9556,50.3512C58.6082,50.4576 58.2565,50.5506 57.9011,50.6267C57.6619,50.6779 57.421,50.7214 57.1788,50.756C56.9476,50.789 56.7152,50.8138 56.4821,50.8291C56.3471,50.838 56.2118,50.8437 56.0765,50.846C55.9467,50.8481 55.8169,50.8473 55.6872,50.8414C55.0682,50.8131 54.4022,50.6756 53.9349,50.2394C53.8792,50.1874 53.8269,50.1316 53.7787,50.0725C53.7058,49.9831 53.6422,49.8862 53.5884,49.7841C53.4925,49.6019 53.4284,49.4042 53.389,49.2024C53.3281,48.8907 53.3267,48.5728 53.3494,48.2571L53.7712,46.3331L60.62,30.0531L66.2189,30.1271L68.186,27.2411C67.3508,27.343 66.5141,27.4343 65.6802,27.5463C65.4129,27.5876 65.147,27.6372 64.8808,27.6851L61.6781,27.6851C63.5107,23.2736 65.3558,18.8672 67.1751,14.4501C67.2874,14.173 67.3982,13.8954 67.5074,13.617C68.0995,12.08 68.6425,10.5118 68.9667,8.89371C69.0301,8.57723 69.0844,8.25883 69.126,7.93872C69.166,7.6311 69.1964,7.3215 69.202,7.01117C69.21,6.56758 69.1688,6.12201 69.0619,5.69088C68.9512,5.24408 68.769,4.81619 68.5184,4.42984C68.2462,4.01035 67.8985,3.64968 67.5081,3.33908C67.1789,3.07716 66.822,2.85406 66.4407,2.67568C65.6998,2.32905 64.8891,2.15504 64.0756,2.10074C63.4925,2.06182 62.907,2.08052 62.3288,2.16693C60.5374,2.43469 58.8916,3.30177 57.4528,4.37284C56.7096,4.92605 56.0123,5.53949 55.3515,6.18825C54.5977,6.92818 53.8907,7.71498 53.2186,8.52949C51.7285,10.3355 50.4032,12.2718 49.1955,14.2762C48.1099,16.0781 47.0999,17.9253 46.123,19.788C44.7573,22.3921 43.4625,25.0323 42.1946,27.6851C37.5292,27.5052 32.8647,27.2987 28.1983,27.1473C26.5607,27.1038 24.9226,27.1353 23.2894,27.2683C20.6107,27.4863 17.9523,27.9669 15.377,28.739C14.6466,28.9579 13.9231,29.2 13.2082,29.4651C10.6911,30.3985 8.24506,31.6241 6.21454,33.4042C5.9123,33.6691 5.62023,33.9457 5.3402,34.2341C5.03712,34.5461 4.74817,34.872 4.47571,35.2111C4.12906,35.6426 3.80922,36.0956 3.52026,36.5677C3.16791,37.1433 2.86182,37.7471 2.60563,38.3714C2.11059,39.5779 1.80603,40.8567 1.66788,42.1524C1.58527,42.9271 1.56014,43.709 1.6272,44.486C1.71357,45.4866 1.95507,46.4766 2.39465,47.3823C2.5539,47.7104 2.73812,48.0263 2.94549,48.3263C3.28826,48.8223 3.69391,49.2732 4.14475,49.6731C4.97713,50.4113 5.95722,50.9775 6.97985,51.4085C8.95511,52.241 11.1148,52.5614 13.2464,52.615C15.8587,52.6807 18.4765,52.346 20.9824,51.6024C23.2475,50.9302 25.4075,49.9315 27.4159,48.6901C29.2572,47.5518 30.9711,46.2142 32.5614,44.7473C34.4122,43.04 36.0979,41.1583 37.6486,39.1761C39.4008,36.9363 40.9831,34.5663 42.4372,32.1235C42.9168,31.3178 43.3805,30.503 43.8353,29.6831L49.6832,29.9791C48.0898,33.765 46.4777,37.5431 44.9039,41.3373C44.8304,41.5179 44.7582,41.6988 44.6872,41.8804C44.513,42.3355 44.3478,42.7938 44.2009,43.2586C44.0837,43.6293 43.9772,44.0035 43.8848,44.3811C43.8119,44.679 43.7478,44.9791 43.695,45.2813C43.6541,45.5156 43.6199,45.7512 43.5942,45.9877C43.4582,47.2352 43.5364,48.5563 44.0967,49.6992C44.1788,49.8668 44.2708,50.0294 44.3725,50.1858C44.5317,50.4306 44.7145,50.6598 44.9173,50.8699C45.224,51.1877 45.5752,51.4605 45.9525,51.6894C46.5685,52.0632 47.2495,52.3211 47.9449,52.5028C49.0406,52.7891 50.1756,52.891 51.3048,52.9154C51.4387,52.9175 51.5725,52.9187 51.7064,52.9191ZM46.6676,26.5831L49.7581,26.5831L57.7889,7.3997C56.9312,8.49583 56.151,9.65235 55.3989,10.8227C54.4737,12.2621 53.5944,13.731 52.7386,15.2126C50.8481,18.4853 49.0218,21.7966 47.3439,25.1839C47.1158,25.649 46.89,26.1152 46.6676,26.5831ZM202.609,53.0036C202.348,52.9689 202.271,52.9826 202.034,52.8554C201.677,52.6643 201.431,52.3034 201.383,51.9018C201.351,51.6345 201.392,51.5678 201.455,51.312L212.828,21.2061L204.961,26.3104L204.688,26.4434C204.427,26.4992 204.358,26.5389 204.088,26.4969C203.988,26.4813 203.89,26.4533 203.796,26.4141C203.418,26.2552 203.137,25.9118 203.055,25.5096C203.001,25.242 203.038,25.1712 203.082,24.9079L204.065,21.5779C204.166,21.3411 204.174,21.2655 204.354,21.0741C204.421,21.0032 204.504,20.9489 204.578,20.8863L227.723,5.71628C227.97,5.59552 228.029,5.53775 228.31,5.51561C228.732,5.48232 229.151,5.67086 229.406,6.00859C229.469,6.09175 229.522,6.18352 229.562,6.27965C229.602,6.37579 229.63,6.47777 229.645,6.58087C229.686,6.85944 229.643,6.93008 229.58,7.19768L213.691,49.8957C213.644,49.9866 213.607,50.0841 213.549,50.1685C213.432,50.3387 213.275,50.4772 213.091,50.5716C213,50.6185 212.898,50.6422 212.802,50.6774L202.907,52.9714C202.807,52.9821 202.708,52.9929 202.609,53.0036ZM51.7077,54.1691C50.338,54.165 48.9582,54.0594 47.629,53.7123C46.8165,53.5 46.0237,53.1946 45.3043,52.7582C44.806,52.456 44.3454,52.0908 43.9478,51.6642C43.6714,51.3678 43.426,51.0427 43.217,50.6954C43.0947,50.4921 42.9849,50.2814 42.8877,50.065C42.2324,48.6061 42.1792,46.9453 42.4121,45.3842C42.4523,45.1149 42.5012,44.8469 42.5574,44.5805C42.6285,44.2433 42.7111,43.9086 42.8029,43.5765C42.9173,43.1627 43.046,42.753 43.1856,42.3471C43.3803,41.7812 43.5977,41.2239 43.827,40.6712L47.8395,31.1374L44.5485,30.9708C44.4083,31.2209 44.2655,31.4695 44.123,31.7183C43.6559,32.5248 43.1796,33.3258 42.687,34.1171C41.1874,36.5259 39.5552,38.856 37.75,41.0464C36.1369,43.0037 34.3834,44.8507 32.4638,46.5105C30.7915,47.9565 28.9917,49.2594 27.0668,50.3491C25.0933,51.4664 22.99,52.3549 20.8016,52.9537C18.1734,53.6728 15.4337,53.9688 12.7122,53.8471C10.4531,53.746 8.17636,53.3386 6.1104,52.3915C5.05394,51.9072 4.05072,51.2861 3.19324,50.4981C2.71611,50.0596 2.28567,49.5703 1.91713,49.0371C1.17408,47.962 0.702722,46.7229 0.487833,45.4365C0.315483,44.4048 0.303565,43.3522 0.396331,42.3119C0.498117,41.1704 0.715898,40.0386 1.06618,38.9469C1.39246,37.93 1.83355,36.9506 2.38202,36.0342C2.69324,35.5141 3.0385,35.0145 3.41354,34.5384C3.73606,34.1291 4.08042,33.737 4.44352,33.3632C5.85938,31.9054 7.54878,30.7352 9.34552,29.7962C10.4526,29.2177 11.6029,28.7272 12.7736,28.2931C13.5135,28.0188 14.2622,27.7681 15.0181,27.5416C17.7654,26.7182 20.6036,26.2153 23.4626,26.0009C25.241,25.8675 27.0243,25.8498 28.806,25.918L41.4215,26.4044C41.7283,25.7664 42.0367,25.1293 42.3467,24.4929C42.5523,24.0738 42.7585,23.6549 42.9652,23.2363C44.0622,21.031 45.1839,18.8378 46.3731,16.6806C47.2869,15.0231 48.236,13.3823 49.2732,11.7984C49.9458,10.7714 50.6584,9.76936 51.4076,8.79685C52.4147,7.48955 53.4959,6.23407 54.6875,5.09075C55.6679,4.15008 56.7267,3.28275 57.8842,2.56814C58.6384,2.10252 59.4357,1.70298 60.2712,1.40507C61.2629,1.05146 62.3077,0.844973 63.3618,0.831738C64.4911,0.817558 65.6349,0.984468 66.6829,1.41689C67.2596,1.65484 67.7981,1.9726 68.286,2.36066C68.8762,2.83002 69.3839,3.39598 69.7518,4.0564C70.0441,4.58114 70.2436,5.15421 70.3514,5.74472C70.4345,6.20039 70.4636,6.66485 70.4495,7.12756C70.4396,7.45279 70.4075,7.77724 70.3656,8.09977C70.3012,8.59563 70.2092,9.08769 70.0995,9.57542C69.9195,10.3751 69.6917,11.1637 69.4371,11.9426C69.0752,13.0496 68.6563,14.1363 68.2127,15.2129L63.5509,26.4351C63.957,26.4351 64.3633,26.4477 64.7692,26.4351C64.8551,26.4324 64.9383,26.4044 65.0229,26.3894C65.1513,26.3667 65.2798,26.3446 65.4085,26.3235C65.503,26.3089 65.5026,26.309 65.5977,26.2962L65.6338,26.2932L68.0346,26.0003C68.3135,26.0019 68.3938,25.9758 68.6585,26.0838C69.0563,26.2463 69.3483,26.6116 69.419,27.0355C69.4364,27.1398 69.4405,27.2472 69.431,27.3526C69.4055,27.6373 69.3455,27.6966 69.2189,27.9451L67.2518,30.8311C67.1841,30.908 67.1254,30.9938 67.0488,31.0618C66.8945,31.1988 66.7086,31.2955 66.5078,31.3432C66.4081,31.3669 66.3042,31.3657 66.2024,31.377L61.4456,31.3141L54.9678,46.7124L54.5902,48.4347C54.5806,48.6105 54.582,48.789 54.6158,48.9625C54.636,49.0658 54.6677,49.1716 54.7293,49.2584C54.8171,49.3825 54.9662,49.4488 55.1068,49.4931C55.411,49.5891 55.7389,49.6014 56.0554,49.5961C56.1704,49.5941 56.2854,49.5893 56.4002,49.5818C56.5603,49.5712 56.72,49.5554 56.8791,49.5351C57.0469,49.5137 57.214,49.4872 57.3803,49.4563C58.5853,49.2319 59.7437,48.7878 60.8467,48.2616C62.3859,47.5271 63.8332,46.6148 65.2298,45.6398L65.3927,45.5248L65.5298,44.7177L65.559,44.5881L66.2386,42.1765L79.7418,4.83797C79.787,4.74843 79.8218,4.65278 79.8774,4.56933C79.9896,4.40121 80.1409,4.26279 80.3183,4.16594C80.4063,4.11787 80.5047,4.0917 80.5979,4.05457L90.398,1.46457C90.6603,1.42821 90.7313,1.39418 90.9953,1.45436C91.3918,1.54477 91.7261,1.83021 91.8775,2.20767C91.9149,2.30075 91.9411,2.39905 91.9551,2.49836C91.993,2.76642 91.9531,2.83434 91.8949,3.09267L75.8712,48.0595C75.8695,48.2182 75.8854,48.3772 75.9324,48.5292C75.961,48.6219 76.0014,48.7106 76.0523,48.7931C76.0952,48.8628 76.1453,48.9283 76.201,48.9883C76.2652,49.0574 76.3385,49.1197 76.4235,49.1617C76.561,49.2295 76.7142,49.2308 76.8643,49.2243C76.9791,49.2193 77.0935,49.2078 77.2072,49.1917C77.7298,49.1177 78.2381,48.9517 78.7269,48.7565C78.9481,48.6683 79.1663,48.5725 79.3819,48.4713C79.6645,48.3386 79.9427,48.1966 80.2173,48.0479C80.5241,47.8818 80.8263,47.7072 81.1249,47.5267C81.5046,47.2971 81.8783,47.0577 82.2472,46.8111C82.7101,46.5017 83.1645,46.1803 83.6149,45.853L83.6962,45.7933L83.8791,44.7176L83.9082,44.5881L84.5877,42.1765L98.0909,4.83797C98.1361,4.74843 98.1709,4.65278 98.2266,4.56933C98.3387,4.40121 98.49,4.26279 98.6674,4.16594C98.7555,4.11787 98.8538,4.0917 98.947,4.05457L108.747,1.46457C109.009,1.42821 109.08,1.39418 109.344,1.45436C109.741,1.54477 110.075,1.83021 110.227,2.20767C110.264,2.30075 110.29,2.39905 110.304,2.49836C110.342,2.76642 110.302,2.83434 110.244,3.09266L94.2203,48.0598C94.2187,48.2183 94.2346,48.3773 94.2815,48.5292C94.313,48.6312 94.3589,48.7285 94.4172,48.8179C94.4616,48.886 94.5125,48.9503 94.5694,49.0085C94.6329,49.0736 94.7052,49.1311 94.7884,49.1691C94.922,49.2302 95.0696,49.2305 95.2137,49.2243C95.3286,49.2193 95.4432,49.2079 95.5571,49.1917C96.0813,49.1171 96.5911,48.9505 97.0814,48.7545C97.3033,48.6657 97.5222,48.5695 97.7385,48.4678C98.0218,48.3346 98.3008,48.192 98.576,48.0427C98.9305,47.8505 99.2789,47.6473 99.6225,47.4363C100.058,47.1688 100.486,46.8889 100.908,46.6004C101.437,46.239 101.955,45.8632 102.468,45.4798L102.736,45.3272C102.835,45.2996 102.931,45.2597 103.033,45.2446C103.445,45.1834 103.87,45.3371 104.148,45.6481C104.217,45.7247 104.265,45.817 104.324,45.9015L104.788,46.7895C104.878,47.022 104.923,47.0793 104.93,47.3333C104.939,47.6179 104.847,47.9008 104.675,48.1272C104.565,48.2717 104.42,48.3812 104.281,48.4952C104.15,48.6028 104.01,48.7164 103.877,48.8218C102.716,49.7451 101.487,50.5864 100.188,51.3047C99.3088,51.7907 98.3982,52.2202 97.4598,52.5786C96.6939,52.8712 95.91,53.1166 95.1127,53.308C94.472,53.4619 93.8229,53.5808 93.1691,53.6629C92.6637,53.7263 92.1555,53.7677 91.6464,53.7868C91.2927,53.8001 90.9386,53.8029 90.5848,53.7941C90.3231,53.7876 90.0616,53.7746 89.8006,53.7538C88.3074,53.635 86.7683,53.2582 85.5646,52.3239C85.3979,52.1946 85.2389,52.0553 85.0891,51.9066C84.8844,51.7034 84.6969,51.4828 84.5299,51.2476C84.2694,50.8807 84.064,50.4811 83.9023,50.0618L83.8917,50.033C83.7249,50.1473 83.5567,50.2593 83.3879,50.3706C83.1924,50.4971 83.1928,50.4968 82.9961,50.6216C82.0396,51.2156 81.0509,51.7539 80.0192,52.206C79.2303,52.5517 78.4199,52.8487 77.5926,53.0884C76.9192,53.2835 76.2347,53.4408 75.5431,53.5568C74.9953,53.6487 74.4432,53.7149 73.8892,53.7546C73.4742,53.7843 73.0583,53.7991 72.6423,53.7991C72.312,53.7991 71.9818,53.7896 71.6522,53.7683C71.4017,53.7521 71.1516,53.7292 70.9024,53.6982C69.5814,53.5338 68.2477,53.1364 67.1881,52.3026C67.024,52.1734 66.8673,52.0346 66.7198,51.8866C66.4995,51.6654 66.2994,51.4238 66.1238,51.1656C65.8879,50.8188 65.6995,50.4444 65.5499,50.0529L65.5253,49.9862C65.3471,50.0959 65.1673,50.2028 64.9873,50.3097C64.751,50.4475 64.7514,50.4473 64.514,50.5832C63.8898,50.9335 63.2577,51.2685 62.6123,51.5782C61.2195,52.2465 59.7741,52.8073 58.2885,53.2324C57.0156,53.5967 55.714,53.8608 54.3987,54.0133C53.7483,54.0887 53.0959,54.1335 52.4417,54.1575C52.197,54.1639 51.9525,54.1678 51.7077,54.1691ZM202.624,51.7537L212.52,49.4597L228.408,6.76172L205.263,21.9317L204.281,25.2617L215.344,18.0837C211.104,29.3071 206.864,40.5304 202.624,51.7537ZM136.593,19.8526C136.347,19.8495 136.103,19.8373 135.859,19.8063C135.245,19.7283 134.645,19.5508 134.088,19.2822C133.461,18.9803 132.891,18.5645 132.411,18.0614C131.93,17.5571 131.541,16.9659 131.27,16.324C131.046,15.7958 130.903,15.2344 130.845,14.6639C130.786,14.0797 130.815,13.4863 130.932,12.9111C131.046,12.3556 131.243,11.8176 131.513,11.3194C132.112,10.2167 133.071,9.32451 134.215,8.80738C134.915,8.49077 135.677,8.31758 136.445,8.29815C137.218,8.2786 137.993,8.41381 138.712,8.69746C139.361,8.9534 139.962,9.32835 140.479,9.79772C140.993,10.2651 141.422,10.8247 141.739,11.4431C141.998,11.9492 142.181,12.4936 142.281,13.0534C142.384,13.6318 142.399,14.2259 142.325,14.8088C142.253,15.3759 142.096,15.9317 141.861,16.4527C141.344,17.5964 140.451,18.5554 139.348,19.1544C138.808,19.4482 138.22,19.6542 137.615,19.7624C137.374,19.8053 137.133,19.8297 136.889,19.8452C136.741,19.8508 136.742,19.8507 136.593,19.8526ZM136.593,18.6025C136.786,18.6001 136.978,18.5905 137.17,18.5662C137.65,18.5051 138.12,18.3662 138.556,18.156C139.409,17.7451 140.123,17.0647 140.575,16.2328C140.787,15.8429 140.94,15.4218 141.029,14.987C141.129,14.4982 141.148,13.9927 141.085,13.4977C141.029,13.0538 140.906,12.6188 140.721,12.211C140.497,11.7137 140.181,11.2585 139.795,10.8726C139.409,10.4868 138.954,10.1712 138.457,9.94637C137.908,9.69847 137.312,9.56307 136.71,9.54786C136.104,9.53254 135.497,9.63809 134.933,9.86046C134.424,10.061 133.953,10.3549 133.549,10.7227C133.145,11.0891 132.809,11.5281 132.561,12.013C132.358,12.409 132.214,12.8349 132.136,13.2729C132.055,13.727 132.043,14.1936 132.102,14.6512C132.158,15.0951 132.281,15.5301 132.465,15.9379C132.87,16.8344 133.57,17.5864 134.435,18.056C134.858,18.2859 135.318,18.4472 135.792,18.5318C135.98,18.5654 136.169,18.5845 136.36,18.5966C136.477,18.6011 136.477,18.6011 136.593,18.6025Z" style="fill:rgb(244,201,168);fill-rule:nonzero;"/>
        </g>
    </g>
</svg>
