<?xml version="1.0" standalone="no"?>
<!DOCTYPE svg PUBLIC "-//W3C//DTD SVG 1.1//EN" "http://www.w3.org/Graphics/SVG/1.1/DTD/svg11.dtd">
<svg width="100%" height="100%" viewBox="0 0 60 30" version="1.1" xmlns="http://www.w3.org/2000/svg" xmlns:xlink="http://www.w3.org/1999/xlink" xml:space="preserve" style="fill-rule:evenodd;clip-rule:evenodd;stroke-linejoin:round;stroke-miterlimit:1.41421;">
    <g id="Layer1">
        <path d="M60,30L0,30L0,13.9027C0.442423,9.19178 1.72505,4.55322 3.99805,0L3.39569,8.39076C4.15951,6.96844 5.30163,5.77057 7,4.90273C5.54441,7.58344 4.9156,10.4084 4.98009,13.3544C5.36572,11.051 6.54316,9.06078 9.861,7.9172L9.90321,7.90273L9.88514,7.92498C8.35277,9.81613 7.74477,11.8148 7.90321,13.9027L8,13.9027C12.6668,11.3682 9.25747,4.4705 6.137,2.90273C11.5966,5.28477 13.4917,7.33495 14.6067,11.993C15.1413,10.4841 16.199,9.18218 18.2432,8.27045C18.2226,6.25631 17.6405,3.90043 16,0.902734C20.2541,4.99295 21.5203,7.6067 21.873,10.8771C23.8241,8.50175 26.6831,6.34963 29.5857,4.20822C29.3612,4.10182 29.1304,3.99993 28.894,3.90273C29.2077,3.94688 29.5116,3.99449 29.8061,4.04564L30,3.90273L29.8891,4.0602C35.2387,5.00735 37.4298,7.14356 37.779,11.0624C38.2213,10.2586 38.8648,9.53426 39.7949,8.9233C39.6217,8.57976 39.4257,8.23954 39.2063,7.90273C39.6593,8.09565 40.0628,8.31302 40.4222,8.55225C40.8714,8.31302 41.3759,8.09565 41.9422,7.90273C41.6258,8.29116 41.3485,8.68414 41.1089,9.0815C42.19,10.0468 42.7465,11.2715 43.0242,12.6341C43.012,9.24902 42.3748,5.99723 41,2.90273C43.534,4.48529 44.8297,6.9658 45.4782,9.91566C47.4668,7.80376 50.1109,5.853 52.757,3.90273C50.9242,6.50825 48.999,9.11769 48.1714,11.6805C49.601,9.61039 51.7995,7.75628 54,5.90273C52.962,7.58919 51.8816,9.2777 51.2001,10.9469C52.9377,11.3436 53.9103,11.9294 54.4466,12.6232C55.5285,8.85129 54.8595,4.45939 54,0C57.0585,4.02838 59.0568,8.653 59.9948,13.8739L60,13.8739L60,30ZM52.6033,13.8739C52.7129,12.8842 52.2694,11.9348 51.1651,11.0334C50.7792,11.9978 50.5291,12.9556 50.5,13.9027L52.5559,13.9027L52.5559,13.8739L52.6033,13.8739ZM39.9422,13.9027L40.8063,13.9027C40.8771,12.7359 40.7564,11.597 40.4222,10.489C40.0044,11.5969 39.8536,12.7359 39.9422,13.9027ZM29,13.9027L30.757,13.9027C33.089,12.0357 33.925,10.2585 33.733,8.68768C31.0921,10.3511 28.7254,12.0934 29,13.9027ZM25,13.9027C25.5451,11.5276 27.4922,9.42974 33.6285,8.1604C33.1959,6.5905 31.7267,5.25428 29.7343,4.27978C27.4493,7.51746 25.1104,10.7574 25,13.9027ZM17.1632,13.4649C17.6401,12.1707 18.0686,10.8456 18.2015,9.34016C17.4581,10.6689 17.1288,12.0457 17.1632,13.4649Z" style="fill:rgb(61,27,3);"/>
    </g>
</svg>
