<?xml version="1.0" standalone="no"?>
<!DOCTYPE svg PUBLIC "-//W3C//DTD SVG 1.1//EN" "http://www.w3.org/Graphics/SVG/1.1/DTD/svg11.dtd">
<svg width="100%" height="100%" viewBox="0 0 75 20" version="1.1" xmlns="http://www.w3.org/2000/svg" xmlns:xlink="http://www.w3.org/1999/xlink" xml:space="preserve" style="fill-rule:evenodd;clip-rule:evenodd;stroke-linejoin:round;stroke-miterlimit:1.41421;">
    <g id="Layer1">
        <rect x="0" y="8" width="21" height="12" style="fill:rgb(138,66,15);"/>
        <rect x="25" y="8" width="21" height="12" style="fill:rgb(138,66,15);"/>
        <rect x="50" y="8" width="21" height="12" style="fill:rgb(138,66,15);"/>
        <rect x="0" y="8" width="75" height="1" style="fill:rgb(138,66,15);"/>
        <rect x="0" y="3" width="75" height="1" style="fill:rgb(138,66,15);"/>
        <path d="M15.0082,18.5696C11.0349,18.5374 10.0842,15.9851 7.59613,15.9851C5.09613,15.9851 4.02439,18.5242 0.00824491,18.5696C-0.0103061,19.1091 0.00824491,20 0.00824491,20L15.0082,20C15.0082,20 15.0014,19.4162 15.0082,18.5696Z" style="fill:rgb(15,128,138);"/>
        <path d="M15.0082,18.5696C11.0349,18.5374 10.0842,15.9851 7.59613,15.9851C5.09613,15.9851 4.02439,18.5242 0.00824491,18.5696C-0.0103061,19.1091 0.00824491,20 0.00824491,20L15.0082,20C15.0082,20 15.0014,19.4162 15.0082,18.5696Z" style="fill:rgb(15,128,138);"/>
        <path d="M30.0082,18.5696C26.0349,18.5374 25.0842,15.9851 22.5961,15.9851C20.0961,15.9851 19.0244,18.5242 15.0082,18.5696C14.9897,19.1091 15.0082,20 15.0082,20L30.0082,20C30.0082,20 30.0014,19.4162 30.0082,18.5696Z" style="fill:rgb(15,128,138);"/>
        <path d="M45.0082,18.5696C41.0349,18.5374 40.0842,15.9851 37.5961,15.9851C35.0961,15.9851 34.0244,18.5242 30.0082,18.5696C29.9897,19.1091 30.0082,20 30.0082,20L45.0082,20C45.0082,20 45.0014,19.4162 45.0082,18.5696Z" style="fill:rgb(15,128,138);"/>
        <path d="M60.0082,18.5696C56.0349,18.5374 55.0842,15.9851 52.5961,15.9851C50.0961,15.9851 49.0244,18.5242 45.0082,18.5696C44.9897,19.1091 45.0082,20 45.0082,20L60.0082,20C60.0082,20 60.0014,19.4162 60.0082,18.5696Z" style="fill:rgb(15,128,138);"/>
        <path d="M75.0082,18.5696C71.0349,18.5374 70.0842,15.9851 67.5961,15.9851C65.0961,15.9851 64.0244,18.5242 60.0082,18.5696C59.9897,19.1091 60.0082,20 60.0082,20L75.0082,20C75.0082,20 75.0014,19.4162 75.0082,18.5696Z" style="fill:rgb(15,128,138);"/>
    </g>
</svg>
